<svg xmlns="http://www.w3.org/2000/svg" xmlns:xlink="http://www.w3.org/1999/xlink" width="48" zoomAndPan="magnify" viewBox="0 0 36 36.000001" height="48" preserveAspectRatio="xMidYMid meet" version="1.0"><defs><g/><clipPath id="f65e272867"><path d="M 1.835938 1.351562 L 34.164062 1.351562 L 34.164062 33.675781 L 1.835938 33.675781 Z M 1.835938 1.351562 " clip-rule="nonzero"/></clipPath><clipPath id="b091555f2e"><path d="M 5.484375 1.351562 L 30.515625 1.351562 C 32.53125 1.351562 34.164062 2.984375 34.164062 5 L 34.164062 30.027344 C 34.164062 32.042969 32.53125 33.675781 30.515625 33.675781 L 5.484375 33.675781 C 3.46875 33.675781 1.835938 32.042969 1.835938 30.027344 L 1.835938 5 C 1.835938 2.984375 3.46875 1.351562 5.484375 1.351562 Z M 5.484375 1.351562 " clip-rule="nonzero"/></clipPath><clipPath id="a274573b14"><path d="M 0.835938 0.351562 L 33.164062 0.351562 L 33.164062 32.675781 L 0.835938 32.675781 Z M 0.835938 0.351562 " clip-rule="nonzero"/></clipPath><clipPath id="e09b9dbb51"><path d="M 4.484375 0.351562 L 29.515625 0.351562 C 31.53125 0.351562 33.164062 1.984375 33.164062 4 L 33.164062 29.027344 C 33.164062 31.042969 31.53125 32.675781 29.515625 32.675781 L 4.484375 32.675781 C 2.46875 32.675781 0.835938 31.042969 0.835938 29.027344 L 0.835938 4 C 0.835938 1.984375 2.46875 0.351562 4.484375 0.351562 Z M 4.484375 0.351562 " clip-rule="nonzero"/></clipPath><clipPath id="3727835b87"><rect x="0" width="34" y="0" height="33"/></clipPath><clipPath id="1bd6397023"><path d="M 21.28125 3.503906 L 30 3.503906 L 30 9 L 21.28125 9 Z M 21.28125 3.503906 " clip-rule="nonzero"/></clipPath><clipPath id="1668357060"><path d="M 28 11 L 30 11 L 30 12.257812 L 28 12.257812 Z M 28 11 " clip-rule="nonzero"/></clipPath><clipPath id="c1fc72df02"><path d="M 25 11 L 27 11 L 27 12.257812 L 25 12.257812 Z M 25 11 " clip-rule="nonzero"/></clipPath><clipPath id="03c443af2d"><path d="M 24 11 L 26 11 L 26 12.257812 L 24 12.257812 Z M 24 11 " clip-rule="nonzero"/></clipPath><clipPath id="93ac55793d"><path d="M 27 11 L 29 11 L 29 12.257812 L 27 12.257812 Z M 27 11 " clip-rule="nonzero"/></clipPath><clipPath id="8fb753f631"><path d="M 26 11 L 27 11 L 27 12.257812 L 26 12.257812 Z M 26 11 " clip-rule="nonzero"/></clipPath><clipPath id="9d5c0db524"><path d="M 21.28125 9 L 23 9 L 23 11 L 21.28125 11 Z M 21.28125 9 " clip-rule="nonzero"/></clipPath><clipPath id="0f173bcce5"><path d="M 27 11 L 28 11 L 28 12.257812 L 27 12.257812 Z M 27 11 " clip-rule="nonzero"/></clipPath><clipPath id="1b5c9a768e"><rect x="0" width="26" y="0" height="15"/></clipPath><clipPath id="be35c18c2b"><path d="M 2 1 L 4 1 L 4 3.757812 L 2 3.757812 Z M 2 1 " clip-rule="nonzero"/></clipPath><clipPath id="9b6a5c3778"><path d="M 8 1 L 10 1 L 10 3.757812 L 8 3.757812 Z M 8 1 " clip-rule="nonzero"/></clipPath><clipPath id="6225944860"><path d="M 12 1 L 14 1 L 14 3.757812 L 12 3.757812 Z M 12 1 " clip-rule="nonzero"/></clipPath><clipPath id="9b62e10968"><path d="M 15 1 L 17 1 L 17 3.757812 L 15 3.757812 Z M 15 1 " clip-rule="nonzero"/></clipPath><clipPath id="3283b61a28"><path d="M 16 1 L 18 1 L 18 3.757812 L 16 3.757812 Z M 16 1 " clip-rule="nonzero"/></clipPath><clipPath id="053fa084b3"><path d="M 19 1 L 21 1 L 21 3.757812 L 19 3.757812 Z M 19 1 " clip-rule="nonzero"/></clipPath><clipPath id="4bdf9b8cc7"><path d="M 20 1 L 22.472656 1 L 22.472656 3 L 20 3 Z M 20 1 " clip-rule="nonzero"/></clipPath><clipPath id="8454fbab03"><rect x="0" width="23" y="0" height="4"/></clipPath></defs><g clip-path="url(#f65e272867)"><g clip-path="url(#b091555f2e)"><g transform="matrix(1, 0, 0, 1, 1, 1)"><g clip-path="url(#3727835b87)"><g clip-path="url(#a274573b14)"><g clip-path="url(#e09b9dbb51)"><path fill="#f3f6fa" d="M 0.835938 0.351562 L 33.164062 0.351562 L 33.164062 32.675781 L 0.835938 32.675781 Z M 0.835938 0.351562 " fill-opacity="1" fill-rule="nonzero"/></g></g></g></g></g></g><g clip-path="url(#1bd6397023)"><path fill="#0b1320" d="M 29.667969 3.582031 C 29.652344 3.527344 29.597656 3.496094 29.539062 3.507812 C 29.519531 3.511719 27.472656 3.960938 25.453125 4.414062 C 24.269531 4.679688 23.324219 4.898438 22.644531 5.054688 C 22.242188 5.148438 21.929688 5.226562 21.71875 5.277344 C 21.601562 5.308594 21.515625 5.332031 21.453125 5.347656 C 21.363281 5.375 21.28125 5.398438 21.28125 5.488281 C 21.285156 5.523438 21.300781 5.558594 21.328125 5.578125 C 21.800781 5.914062 22.285156 6.261719 22.804688 6.546875 C 22.804688 6.554688 22.804688 6.566406 22.808594 6.574219 L 23.640625 8.726562 C 23.652344 8.757812 23.675781 8.78125 23.707031 8.792969 C 23.71875 8.796875 23.730469 8.796875 23.742188 8.796875 C 23.765625 8.796875 23.785156 8.792969 23.804688 8.78125 L 25.125 7.925781 C 25.132812 7.921875 25.140625 7.914062 25.148438 7.902344 L 26.175781 8.703125 C 26.195312 8.71875 26.21875 8.726562 26.246094 8.726562 C 26.25 8.726562 26.257812 8.726562 26.261719 8.726562 C 26.292969 8.722656 26.320312 8.703125 26.335938 8.679688 L 29.652344 3.710938 C 29.664062 3.691406 29.671875 3.667969 29.671875 3.648438 C 29.675781 3.625 29.675781 3.605469 29.667969 3.582031 Z M 28.476562 3.96875 L 22.949219 6.375 C 22.492188 6.128906 22.058594 5.828125 21.636719 5.527344 C 22.46875 5.308594 25.761719 4.570312 28.476562 3.96875 Z M 23.046875 6.574219 L 28.457031 4.21875 L 24.164062 6.949219 C 24.132812 6.96875 24.113281 7 24.113281 7.035156 C 24.113281 7.039062 24.113281 7.039062 24.113281 7.042969 C 24.109375 7.046875 24.109375 7.050781 24.109375 7.054688 L 23.746094 8.382812 Z M 23.964844 8.410156 L 24.289062 7.234375 L 24.96875 7.761719 Z M 26.21875 8.457031 L 24.414062 7.050781 L 29.175781 4.023438 Z M 26.21875 8.457031 " fill-opacity="1" fill-rule="nonzero"/></g><g clip-path="url(#1668357060)"><path fill="#0b1320" d="M 29.195312 12.101562 C 29.078125 12.023438 28.949219 11.957031 28.804688 11.910156 C 28.746094 11.890625 28.683594 11.921875 28.664062 11.980469 C 28.644531 12.035156 28.675781 12.101562 28.734375 12.121094 C 28.859375 12.160156 28.972656 12.21875 29.070312 12.285156 C 29.089844 12.296875 29.113281 12.300781 29.132812 12.300781 C 29.167969 12.300781 29.203125 12.285156 29.226562 12.253906 C 29.257812 12.203125 29.246094 12.132812 29.195312 12.101562 Z M 29.195312 12.101562 " fill-opacity="1" fill-rule="nonzero"/></g><path fill="#0b1320" d="M 24.480469 11.679688 C 24.527344 11.664062 24.578125 11.648438 24.628906 11.632812 C 24.6875 11.613281 24.71875 11.550781 24.699219 11.492188 C 24.679688 11.433594 24.617188 11.402344 24.558594 11.421875 C 24.503906 11.441406 24.449219 11.457031 24.390625 11.472656 C 24.386719 11.449219 24.382812 11.425781 24.382812 11.402344 C 24.378906 11.34375 24.324219 11.296875 24.265625 11.300781 C 24.203125 11.304688 24.15625 11.355469 24.160156 11.417969 C 24.164062 11.453125 24.167969 11.488281 24.175781 11.523438 C 24.117188 11.535156 24.082031 11.59375 24.09375 11.652344 C 24.105469 11.710938 24.164062 11.75 24.222656 11.738281 C 24.234375 11.738281 24.242188 11.734375 24.253906 11.730469 C 24.277344 11.773438 24.300781 11.8125 24.332031 11.851562 C 24.351562 11.878906 24.386719 11.894531 24.417969 11.894531 C 24.441406 11.894531 24.464844 11.886719 24.484375 11.871094 C 24.535156 11.832031 24.542969 11.761719 24.503906 11.714844 C 24.496094 11.703125 24.488281 11.691406 24.480469 11.679688 Z M 24.480469 11.679688 " fill-opacity="1" fill-rule="nonzero"/><path fill="#0b1320" d="M 23.792969 11.570312 C 23.675781 11.578125 23.554688 11.578125 23.4375 11.570312 C 23.425781 11.570312 23.414062 11.570312 23.402344 11.570312 C 23.34375 11.5625 23.289062 11.609375 23.285156 11.671875 C 23.28125 11.730469 23.324219 11.785156 23.386719 11.789062 C 23.398438 11.789062 23.410156 11.792969 23.425781 11.792969 C 23.488281 11.796875 23.550781 11.796875 23.613281 11.796875 C 23.675781 11.796875 23.742188 11.796875 23.804688 11.792969 C 23.867188 11.789062 23.914062 11.734375 23.910156 11.675781 C 23.90625 11.613281 23.855469 11.566406 23.792969 11.570312 Z M 23.792969 11.570312 " fill-opacity="1" fill-rule="nonzero"/><g clip-path="url(#c1fc72df02)"><path fill="#0b1320" d="M 25.9375 11.941406 L 25.535156 11.972656 C 25.472656 11.976562 25.425781 12.03125 25.429688 12.089844 C 25.4375 12.148438 25.484375 12.191406 25.542969 12.191406 C 25.542969 12.191406 25.546875 12.191406 25.550781 12.191406 L 25.953125 12.160156 C 26.015625 12.15625 26.0625 12.105469 26.058594 12.042969 C 26.050781 11.980469 26 11.9375 25.9375 11.941406 Z M 25.9375 11.941406 " fill-opacity="1" fill-rule="nonzero"/></g><path fill="#0b1320" d="M 23.09375 8.753906 C 22.96875 8.84375 22.863281 8.929688 22.769531 9.007812 C 22.722656 9.050781 22.714844 9.117188 22.753906 9.164062 C 22.777344 9.191406 22.808594 9.203125 22.839844 9.203125 C 22.867188 9.203125 22.890625 9.195312 22.910156 9.179688 C 23.003906 9.101562 23.105469 9.019531 23.226562 8.933594 C 23.273438 8.894531 23.285156 8.828125 23.25 8.777344 C 23.210938 8.726562 23.140625 8.71875 23.09375 8.753906 Z M 23.09375 8.753906 " fill-opacity="1" fill-rule="nonzero"/><path fill="#0b1320" d="M 23.023438 11.507812 C 22.894531 11.472656 22.777344 11.425781 22.671875 11.367188 C 22.621094 11.335938 22.554688 11.355469 22.523438 11.40625 C 22.492188 11.460938 22.511719 11.527344 22.566406 11.558594 C 22.683594 11.625 22.820312 11.679688 22.964844 11.71875 C 22.976562 11.722656 22.984375 11.722656 22.996094 11.722656 C 23.042969 11.722656 23.089844 11.691406 23.101562 11.640625 C 23.117188 11.582031 23.082031 11.523438 23.023438 11.507812 Z M 23.023438 11.507812 " fill-opacity="1" fill-rule="nonzero"/><path fill="#0b1320" d="M 22.230469 9.78125 C 22.25 9.792969 22.269531 9.796875 22.289062 9.796875 C 22.324219 9.796875 22.363281 9.78125 22.382812 9.746094 C 22.445312 9.648438 22.527344 9.550781 22.625 9.445312 C 22.664062 9.402344 22.664062 9.332031 22.621094 9.289062 C 22.574219 9.25 22.503906 9.25 22.464844 9.292969 C 22.355469 9.40625 22.265625 9.519531 22.195312 9.625 C 22.164062 9.679688 22.179688 9.746094 22.230469 9.78125 Z M 22.230469 9.78125 " fill-opacity="1" fill-rule="nonzero"/><g clip-path="url(#03c443af2d)"><path fill="#0b1320" d="M 25.140625 11.984375 C 24.996094 11.976562 24.878906 11.953125 24.777344 11.917969 C 24.722656 11.894531 24.65625 11.921875 24.636719 11.980469 C 24.613281 12.039062 24.644531 12.101562 24.699219 12.125 C 24.824219 12.171875 24.964844 12.195312 25.132812 12.203125 C 25.132812 12.203125 25.136719 12.203125 25.136719 12.203125 C 25.195312 12.203125 25.246094 12.15625 25.246094 12.097656 C 25.25 12.039062 25.203125 11.984375 25.140625 11.984375 Z M 25.140625 11.984375 " fill-opacity="1" fill-rule="nonzero"/></g><path fill="#0b1320" d="M 22.355469 11.09375 C 22.296875 11.011719 22.25 10.921875 22.21875 10.820312 C 22.199219 10.761719 22.140625 10.730469 22.082031 10.746094 C 22.023438 10.765625 21.988281 10.828125 22.007812 10.886719 C 22.046875 11.011719 22.105469 11.125 22.179688 11.222656 C 22.191406 11.242188 22.207031 11.261719 22.222656 11.277344 C 22.246094 11.304688 22.273438 11.316406 22.308594 11.316406 C 22.332031 11.316406 22.355469 11.308594 22.378906 11.292969 C 22.425781 11.253906 22.429688 11.183594 22.390625 11.136719 C 22.378906 11.121094 22.367188 11.105469 22.355469 11.09375 Z M 22.355469 11.09375 " fill-opacity="1" fill-rule="nonzero"/><g clip-path="url(#93ac55793d)"><path fill="#0b1320" d="M 28.386719 11.816406 C 28.273438 11.804688 28.152344 11.796875 28.019531 11.796875 C 28.003906 11.796875 27.984375 11.796875 27.96875 11.796875 C 27.90625 11.796875 27.859375 11.847656 27.859375 11.910156 C 27.859375 11.96875 27.910156 12.019531 27.96875 12.019531 C 27.96875 12.019531 27.972656 12.019531 27.972656 12.019531 C 27.988281 12.019531 28.003906 12.019531 28.019531 12.019531 C 28.144531 12.019531 28.257812 12.023438 28.363281 12.039062 C 28.367188 12.039062 28.371094 12.039062 28.375 12.039062 C 28.429688 12.039062 28.476562 11.996094 28.484375 11.941406 C 28.492188 11.878906 28.449219 11.824219 28.386719 11.816406 Z M 28.386719 11.816406 " fill-opacity="1" fill-rule="nonzero"/></g><path fill="#0b1320" d="M 25.964844 10.53125 C 25.910156 10.5 25.84375 10.519531 25.8125 10.574219 C 25.761719 10.667969 25.683594 10.75 25.628906 10.796875 C 25.609375 10.816406 25.59375 10.832031 25.574219 10.847656 C 25.527344 10.886719 25.523438 10.957031 25.5625 11.003906 C 25.585938 11.027344 25.617188 11.042969 25.644531 11.042969 C 25.671875 11.042969 25.699219 11.03125 25.71875 11.015625 C 25.738281 10.996094 25.757812 10.980469 25.777344 10.960938 C 25.847656 10.902344 25.941406 10.800781 26.007812 10.679688 C 26.039062 10.625 26.019531 10.558594 25.964844 10.53125 Z M 25.964844 10.53125 " fill-opacity="1" fill-rule="nonzero"/><path fill="#0b1320" d="M 26.03125 10.183594 C 25.945312 10.042969 25.777344 9.953125 25.589844 9.953125 C 25.527344 9.953125 25.476562 10 25.476562 10.0625 C 25.476562 10.125 25.527344 10.171875 25.585938 10.171875 C 25.695312 10.175781 25.796875 10.222656 25.839844 10.296875 C 25.859375 10.332031 25.894531 10.351562 25.933594 10.351562 C 25.953125 10.351562 25.972656 10.347656 25.988281 10.335938 C 26.042969 10.304688 26.058594 10.238281 26.03125 10.183594 Z M 26.03125 10.183594 " fill-opacity="1" fill-rule="nonzero"/><g clip-path="url(#8fb753f631)"><path fill="#0b1320" d="M 26.746094 11.878906 L 26.34375 11.910156 C 26.28125 11.914062 26.234375 11.96875 26.242188 12.027344 C 26.246094 12.085938 26.292969 12.128906 26.351562 12.128906 C 26.351562 12.128906 26.355469 12.128906 26.359375 12.128906 L 26.765625 12.097656 C 26.824219 12.09375 26.871094 12.042969 26.867188 11.980469 C 26.859375 11.917969 26.808594 11.875 26.746094 11.878906 Z M 26.746094 11.878906 " fill-opacity="1" fill-rule="nonzero"/></g><g clip-path="url(#9d5c0db524)"><path fill="#0b1320" d="M 22.058594 10.5625 C 22.117188 10.5625 22.167969 10.515625 22.167969 10.457031 C 22.171875 10.332031 22.191406 10.207031 22.226562 10.085938 C 22.242188 10.027344 22.210938 9.964844 22.152344 9.949219 C 22.09375 9.929688 22.03125 9.964844 22.015625 10.023438 C 21.972656 10.164062 21.949219 10.308594 21.945312 10.453125 C 21.945312 10.511719 21.996094 10.5625 22.054688 10.5625 C 22.054688 10.5625 22.058594 10.5625 22.058594 10.5625 Z M 22.058594 10.5625 " fill-opacity="1" fill-rule="nonzero"/></g><path fill="#0b1320" d="M 25.414062 11.113281 C 25.382812 11.0625 25.3125 11.050781 25.261719 11.082031 C 25.152344 11.152344 25.039062 11.21875 24.921875 11.273438 C 24.867188 11.300781 24.84375 11.367188 24.871094 11.421875 C 24.890625 11.460938 24.929688 11.484375 24.96875 11.484375 C 24.984375 11.484375 25.003906 11.480469 25.015625 11.472656 C 25.144531 11.414062 25.265625 11.34375 25.382812 11.265625 C 25.433594 11.234375 25.449219 11.164062 25.414062 11.113281 Z M 25.414062 11.113281 " fill-opacity="1" fill-rule="nonzero"/><path fill="#0b1320" d="M 24.863281 10.507812 C 24.886719 10.507812 24.910156 10.5 24.929688 10.480469 C 25.035156 10.398438 25.144531 10.328125 25.25 10.273438 C 25.304688 10.246094 25.328125 10.179688 25.300781 10.125 C 25.273438 10.070312 25.207031 10.050781 25.152344 10.078125 C 25.03125 10.136719 24.90625 10.21875 24.792969 10.308594 C 24.746094 10.347656 24.738281 10.417969 24.773438 10.464844 C 24.796875 10.492188 24.828125 10.507812 24.863281 10.507812 Z M 24.863281 10.507812 " fill-opacity="1" fill-rule="nonzero"/><g clip-path="url(#0f173bcce5)"><path fill="#0b1320" d="M 27.554688 11.816406 C 27.511719 11.820312 27.464844 11.824219 27.421875 11.828125 L 27.152344 11.847656 C 27.089844 11.851562 27.042969 11.90625 27.050781 11.96875 C 27.054688 12.023438 27.101562 12.070312 27.160156 12.070312 C 27.164062 12.070312 27.164062 12.070312 27.167969 12.070312 L 27.4375 12.046875 C 27.480469 12.042969 27.527344 12.042969 27.570312 12.039062 C 27.632812 12.035156 27.679688 11.980469 27.675781 11.917969 C 27.671875 11.859375 27.617188 11.8125 27.554688 11.816406 Z M 27.554688 11.816406 " fill-opacity="1" fill-rule="nonzero"/></g><path fill="#0b1320" d="M 24.304688 11.117188 C 24.320312 11.125 24.335938 11.128906 24.351562 11.128906 C 24.394531 11.128906 24.433594 11.101562 24.453125 11.0625 C 24.496094 10.957031 24.566406 10.851562 24.652344 10.75 C 24.691406 10.703125 24.6875 10.632812 24.640625 10.59375 C 24.59375 10.554688 24.523438 10.558594 24.484375 10.605469 C 24.382812 10.726562 24.304688 10.847656 24.25 10.972656 C 24.226562 11.027344 24.25 11.09375 24.304688 11.117188 Z M 24.304688 11.117188 " fill-opacity="1" fill-rule="nonzero"/><g transform="matrix(1, 0, 0, 1, 5, 10)"><g clip-path="url(#1b5c9a768e)"><g fill="#0b1320" fill-opacity="1"><g transform="translate(1.056474, 9.918)"><g><path d="M 7.015625 -7.015625 L 7.015625 -0.265625 C 7.015625 0.242188 6.878906 0.707031 6.609375 1.125 C 6.335938 1.539062 5.925781 1.878906 5.375 2.140625 C 4.820312 2.410156 4.128906 2.582031 3.296875 2.65625 C 2.984375 2.6875 2.671875 2.675781 2.359375 2.625 C 2.054688 2.582031 1.78125 2.5 1.53125 2.375 C 1.28125 2.25 1.066406 2.085938 0.890625 1.890625 C 0.722656 1.691406 0.609375 1.453125 0.546875 1.171875 C 0.484375 0.890625 0.5 0.566406 0.59375 0.203125 C 0.65625 -0.078125 0.75 -0.367188 0.875 -0.671875 C 1 -0.972656 1.140625 -1.269531 1.296875 -1.5625 C 1.460938 -1.863281 1.628906 -2.144531 1.796875 -2.40625 C 1.960938 -2.675781 2.125 -2.921875 2.28125 -3.140625 C 2.289062 -3.160156 2.3125 -3.160156 2.34375 -3.140625 C 2.382812 -3.128906 2.421875 -3.101562 2.453125 -3.0625 C 2.492188 -3.03125 2.523438 -3 2.546875 -2.96875 C 2.566406 -2.9375 2.566406 -2.910156 2.546875 -2.890625 C 2.410156 -2.703125 2.28125 -2.5 2.15625 -2.28125 C 2.03125 -2.0625 1.921875 -1.835938 1.828125 -1.609375 C 1.734375 -1.390625 1.664062 -1.171875 1.625 -0.953125 C 1.582031 -0.734375 1.578125 -0.523438 1.609375 -0.328125 C 1.648438 -0.128906 1.738281 0.046875 1.875 0.203125 C 2.007812 0.367188 2.191406 0.5 2.421875 0.59375 C 2.648438 0.695312 2.90625 0.765625 3.1875 0.796875 C 3.46875 0.835938 3.753906 0.847656 4.046875 0.828125 C 4.347656 0.816406 4.644531 0.773438 4.9375 0.703125 C 5.226562 0.640625 5.5 0.554688 5.75 0.453125 L 5.75 -5.703125 L 6.953125 -7.03125 C 6.960938 -7.050781 6.972656 -7.054688 6.984375 -7.046875 C 7.003906 -7.035156 7.015625 -7.023438 7.015625 -7.015625 Z M 7.015625 -7.015625 "/></g></g></g><g fill="#0b1320" fill-opacity="1"><g transform="translate(8.589351, 9.918)"><g><path d="M 0.59375 0 L 0.515625 0 L 0.515625 -6.359375 L 1.71875 -7.6875 C 1.726562 -7.707031 1.738281 -7.710938 1.75 -7.703125 C 1.769531 -7.691406 1.78125 -7.679688 1.78125 -7.671875 L 1.78125 -1.5625 Z M 0.59375 0 "/></g></g></g><g fill="#0b1320" fill-opacity="1"><g transform="translate(13.123508, 5.950595)"><g><path d="M 2.53125 -1.515625 L 2.59375 -1.453125 C 2.539062 -1.242188 2.441406 -1.066406 2.296875 -0.921875 C 2.160156 -0.785156 1.988281 -0.675781 1.78125 -0.59375 C 1.582031 -0.507812 1.375 -0.445312 1.15625 -0.40625 C 0.945312 -0.363281 0.742188 -0.332031 0.546875 -0.3125 C 0.347656 -0.289062 0.175781 -0.273438 0.03125 -0.265625 C 0 -0.265625 -0.0078125 -0.273438 0 -0.296875 L 0.3125 -0.875 C 0.863281 -0.9375 1.3125 -1.019531 1.65625 -1.125 C 2.007812 -1.238281 2.300781 -1.367188 2.53125 -1.515625 Z M 2.53125 -1.515625 "/></g></g></g><g fill="#0b1320" fill-opacity="1"><g transform="translate(10.32572, 9.918)"><g><path d="M 6.203125 -3.09375 L 6.375 -3.046875 C 6.4375 -3.035156 6.460938 -2.992188 6.453125 -2.921875 C 6.359375 -2.609375 6.269531 -2.304688 6.1875 -2.015625 C 6.113281 -1.734375 6.019531 -1.46875 5.90625 -1.21875 C 5.800781 -0.976562 5.664062 -0.765625 5.5 -0.578125 C 5.34375 -0.398438 5.132812 -0.257812 4.875 -0.15625 C 4.625 -0.0507812 4.3125 0 3.9375 0 L 2.875 0 C 2.851562 0 2.835938 -0.00390625 2.828125 -0.015625 C 2.828125 -0.0234375 2.832031 -0.0390625 2.84375 -0.0625 L 2.9375 -0.1875 C 2.800781 -0.125 2.648438 -0.078125 2.484375 -0.046875 C 2.316406 -0.015625 2.128906 0 1.921875 0 L 0.859375 0 C 0.847656 0 0.835938 -0.00390625 0.828125 -0.015625 C 0.816406 -0.0234375 0.816406 -0.0390625 0.828125 -0.0625 L 0.9375 -0.1875 C 0.800781 -0.125 0.644531 -0.078125 0.46875 -0.046875 C 0.300781 -0.015625 0.113281 0 -0.09375 0 L -1.21875 0 L -1.1875 -0.140625 L -0.109375 -1.515625 L 0 -1.578125 L 1 -1.578125 C 1.15625 -1.578125 1.285156 -1.613281 1.390625 -1.6875 C 1.503906 -1.769531 1.597656 -1.878906 1.671875 -2.015625 C 1.742188 -2.160156 1.8125 -2.316406 1.875 -2.484375 C 1.9375 -2.660156 2 -2.84375 2.0625 -3.03125 C 2.070312 -3.0625 2.085938 -3.082031 2.109375 -3.09375 C 2.140625 -3.101562 2.164062 -3.101562 2.1875 -3.09375 L 2.359375 -3.046875 C 2.421875 -3.035156 2.441406 -2.992188 2.421875 -2.921875 C 2.359375 -2.679688 2.296875 -2.445312 2.234375 -2.21875 C 2.171875 -1.988281 2.101562 -1.773438 2.03125 -1.578125 L 3.015625 -1.578125 C 3.171875 -1.578125 3.300781 -1.613281 3.40625 -1.6875 C 3.519531 -1.769531 3.613281 -1.878906 3.6875 -2.015625 C 3.757812 -2.160156 3.820312 -2.320312 3.875 -2.5 C 3.9375 -2.675781 4.003906 -2.859375 4.078125 -3.046875 C 4.078125 -3.066406 4.085938 -3.082031 4.109375 -3.09375 C 4.140625 -3.101562 4.171875 -3.101562 4.203125 -3.09375 L 4.375 -3.046875 C 4.4375 -3.035156 4.457031 -2.992188 4.4375 -2.921875 C 4.375 -2.679688 4.3125 -2.445312 4.25 -2.21875 C 4.1875 -1.988281 4.117188 -1.773438 4.046875 -1.578125 L 5.03125 -1.578125 C 5.1875 -1.578125 5.316406 -1.613281 5.421875 -1.6875 C 5.523438 -1.769531 5.613281 -1.878906 5.6875 -2.015625 C 5.769531 -2.160156 5.835938 -2.320312 5.890625 -2.5 C 5.953125 -2.675781 6.015625 -2.859375 6.078125 -3.046875 C 6.085938 -3.066406 6.101562 -3.082031 6.125 -3.09375 C 6.15625 -3.101562 6.179688 -3.101562 6.203125 -3.09375 Z M 6.203125 -3.09375 "/></g></g></g><g fill="#0b1320" fill-opacity="1"><g transform="translate(13.169847, 9.918)"><g><path d="M 0.078125 2.6875 C 0.046875 2.6875 0.0195312 2.671875 0 2.640625 C -0.0078125 2.617188 -0.00390625 2.597656 0.015625 2.578125 L 1.046875 1.03125 C 1.316406 1.007812 1.597656 0.988281 1.890625 0.96875 C 2.191406 0.945312 2.488281 0.921875 2.78125 0.890625 C 3.082031 0.859375 3.363281 0.8125 3.625 0.75 C 3.882812 0.695312 4.117188 0.628906 4.328125 0.546875 C 4.535156 0.460938 4.695312 0.351562 4.8125 0.21875 C 4.925781 0.09375 4.984375 -0.0625 4.984375 -0.25 L 4.984375 -1.046875 C 4.984375 -1.203125 5.03125 -1.328125 5.125 -1.421875 C 5.226562 -1.523438 5.359375 -1.578125 5.515625 -1.578125 L 6.875 -1.578125 L 5.671875 0 C 5.671875 0.40625 5.609375 0.753906 5.484375 1.046875 C 5.367188 1.335938 5.203125 1.578125 4.984375 1.765625 C 4.773438 1.960938 4.523438 2.117188 4.234375 2.234375 C 3.941406 2.359375 3.625 2.453125 3.28125 2.515625 C 2.945312 2.578125 2.597656 2.617188 2.234375 2.640625 C 1.867188 2.660156 1.503906 2.671875 1.140625 2.671875 C 0.773438 2.679688 0.421875 2.6875 0.078125 2.6875 Z M 0.078125 2.6875 "/></g></g></g><g fill="#0b1320" fill-opacity="1"><g transform="translate(20.960348, 12.159327)"><g><path d="M 2.53125 -1.515625 L 2.59375 -1.453125 C 2.539062 -1.242188 2.441406 -1.066406 2.296875 -0.921875 C 2.160156 -0.785156 1.988281 -0.675781 1.78125 -0.59375 C 1.582031 -0.507812 1.375 -0.445312 1.15625 -0.40625 C 0.945312 -0.363281 0.742188 -0.332031 0.546875 -0.3125 C 0.347656 -0.289062 0.175781 -0.273438 0.03125 -0.265625 C 0 -0.265625 -0.0078125 -0.273438 0 -0.296875 L 0.3125 -0.875 C 0.863281 -0.9375 1.3125 -1.019531 1.65625 -1.125 C 2.007812 -1.238281 2.300781 -1.367188 2.53125 -1.515625 Z M 2.53125 -1.515625 "/></g></g></g><g fill="#0b1320" fill-opacity="1"><g transform="translate(19.99168, 9.918)"><g><path d="M 2.859375 -3.546875 L 4.359375 -2.390625 C 4.390625 -2.359375 4.410156 -2.316406 4.421875 -2.265625 C 4.429688 -2.210938 4.421875 -2.164062 4.390625 -2.125 L 2.75 0 L -1.21875 0 L -1.1875 -0.140625 L -0.109375 -1.515625 L 0 -1.578125 L 1.71875 -1.578125 L 1.46875 -1.765625 C 1.425781 -1.796875 1.398438 -1.835938 1.390625 -1.890625 C 1.390625 -1.941406 1.40625 -1.988281 1.4375 -2.03125 L 2.59375 -3.515625 C 2.625 -3.554688 2.664062 -3.578125 2.71875 -3.578125 C 2.769531 -3.585938 2.816406 -3.578125 2.859375 -3.546875 Z M 2.859375 -3.546875 "/></g></g></g></g></g><g transform="matrix(1, 0, 0, 1, 3, 28)"><g clip-path="url(#8454fbab03)"><g fill="#0b1320" fill-opacity="1"><g transform="translate(1.279547, 2.982325)"><g><path d="M 0.171875 0 L 0.171875 -1.671875 L 0.703125 -1.671875 C 0.867188 -1.671875 1 -1.628906 1.09375 -1.546875 C 1.195312 -1.472656 1.25 -1.375 1.25 -1.25 C 1.25 -1.144531 1.21875 -1.0625 1.15625 -1 C 1.101562 -0.9375 1.023438 -0.898438 0.921875 -0.890625 L 0.921875 -0.859375 C 1.035156 -0.859375 1.125 -0.820312 1.1875 -0.75 C 1.25 -0.6875 1.28125 -0.597656 1.28125 -0.484375 C 1.28125 -0.410156 1.265625 -0.34375 1.234375 -0.28125 C 1.210938 -0.21875 1.175781 -0.164062 1.125 -0.125 C 1.082031 -0.0820312 1.023438 -0.0507812 0.953125 -0.03125 C 0.890625 -0.0078125 0.8125 0 0.71875 0 Z M 0.453125 -0.75 L 0.453125 -0.234375 L 0.703125 -0.234375 C 0.785156 -0.234375 0.851562 -0.253906 0.90625 -0.296875 C 0.957031 -0.347656 0.984375 -0.414062 0.984375 -0.5 C 0.984375 -0.570312 0.957031 -0.628906 0.90625 -0.671875 C 0.851562 -0.722656 0.785156 -0.75 0.703125 -0.75 Z M 0.453125 -1.4375 L 0.453125 -0.984375 L 0.703125 -0.984375 C 0.773438 -0.984375 0.832031 -1.003906 0.875 -1.046875 C 0.925781 -1.085938 0.953125 -1.140625 0.953125 -1.203125 C 0.953125 -1.273438 0.925781 -1.332031 0.875 -1.375 C 0.832031 -1.414062 0.773438 -1.4375 0.703125 -1.4375 Z M 0.453125 -1.4375 "/></g></g></g><g clip-path="url(#be35c18c2b)"><g fill="#0b1320" fill-opacity="1"><g transform="translate(2.673276, 2.982325)"><g><path d="M 0.703125 0.390625 L 0.40625 0.390625 L 0.578125 -0.078125 L 0.078125 -1.28125 L 0.40625 -1.28125 L 0.65625 -0.59375 C 0.664062 -0.570312 0.671875 -0.546875 0.671875 -0.515625 C 0.679688 -0.484375 0.6875 -0.453125 0.6875 -0.421875 C 0.695312 -0.390625 0.703125 -0.363281 0.703125 -0.34375 L 0.71875 -0.34375 C 0.71875 -0.363281 0.722656 -0.390625 0.734375 -0.421875 C 0.734375 -0.453125 0.734375 -0.484375 0.734375 -0.515625 C 0.742188 -0.546875 0.753906 -0.570312 0.765625 -0.59375 L 1.015625 -1.28125 L 1.3125 -1.28125 Z M 0.703125 0.390625 "/></g></g></g></g><g fill="#0b1320" fill-opacity="1"><g transform="translate(4.067006, 2.982325)"><g/></g></g><g fill="#0b1320" fill-opacity="1"><g transform="translate(5.460735, 2.982325)"><g><path d="M 0.75 -1.671875 C 0.832031 -1.671875 0.90625 -1.660156 0.96875 -1.640625 C 1.039062 -1.617188 1.101562 -1.582031 1.15625 -1.53125 C 1.207031 -1.488281 1.242188 -1.4375 1.265625 -1.375 C 1.296875 -1.3125 1.3125 -1.242188 1.3125 -1.171875 C 1.3125 -1.085938 1.296875 -1.015625 1.265625 -0.953125 C 1.242188 -0.890625 1.207031 -0.835938 1.15625 -0.796875 C 1.101562 -0.753906 1.039062 -0.71875 0.96875 -0.6875 C 0.90625 -0.664062 0.832031 -0.65625 0.75 -0.65625 L 0.46875 -0.65625 L 0.46875 0 L 0.171875 0 L 0.171875 -1.671875 Z M 0.46875 -1.421875 L 0.46875 -0.90625 L 0.75 -0.90625 C 0.832031 -0.90625 0.894531 -0.925781 0.9375 -0.96875 C 0.988281 -1.019531 1.015625 -1.085938 1.015625 -1.171875 C 1.015625 -1.242188 0.988281 -1.300781 0.9375 -1.34375 C 0.894531 -1.394531 0.832031 -1.421875 0.75 -1.421875 Z M 0.46875 -1.421875 "/></g></g></g><g fill="#0b1320" fill-opacity="1"><g transform="translate(6.854465, 2.982325)"><g><path d="M 0.171875 -1.703125 L 0.453125 -1.703125 L 0.453125 -1.28125 C 0.453125 -1.257812 0.453125 -1.234375 0.453125 -1.203125 C 0.453125 -1.179688 0.453125 -1.160156 0.453125 -1.140625 C 0.453125 -1.117188 0.445312 -1.097656 0.4375 -1.078125 C 0.4375 -1.066406 0.4375 -1.0625 0.4375 -1.0625 L 0.46875 -1.0625 C 0.476562 -1.132812 0.507812 -1.191406 0.5625 -1.234375 C 0.625 -1.273438 0.703125 -1.296875 0.796875 -1.296875 C 0.929688 -1.296875 1.035156 -1.253906 1.109375 -1.171875 C 1.179688 -1.085938 1.21875 -0.976562 1.21875 -0.84375 L 1.21875 0 L 0.9375 0 L 0.9375 -0.796875 C 0.9375 -0.878906 0.914062 -0.941406 0.875 -0.984375 C 0.832031 -1.023438 0.773438 -1.046875 0.703125 -1.046875 C 0.628906 -1.046875 0.566406 -1.023438 0.515625 -0.984375 C 0.472656 -0.941406 0.453125 -0.878906 0.453125 -0.796875 L 0.453125 0 L 0.171875 0 Z M 0.171875 -1.703125 "/></g></g></g><g clip-path="url(#9b6a5c3778)"><g fill="#0b1320" fill-opacity="1"><g transform="translate(8.248194, 2.982325)"><g><path d="M 0.125 -0.359375 C 0.125 -0.421875 0.132812 -0.476562 0.15625 -0.53125 C 0.175781 -0.582031 0.207031 -0.625 0.25 -0.65625 C 0.289062 -0.695312 0.34375 -0.722656 0.40625 -0.734375 C 0.46875 -0.753906 0.535156 -0.765625 0.609375 -0.765625 L 0.9375 -0.765625 L 0.9375 -0.875 C 0.9375 -0.9375 0.914062 -0.984375 0.875 -1.015625 C 0.832031 -1.054688 0.769531 -1.078125 0.6875 -1.078125 C 0.625 -1.078125 0.570312 -1.0625 0.53125 -1.03125 C 0.488281 -1.007812 0.457031 -0.976562 0.4375 -0.9375 L 0.15625 -0.9375 C 0.175781 -1.050781 0.234375 -1.140625 0.328125 -1.203125 C 0.421875 -1.265625 0.539062 -1.296875 0.6875 -1.296875 C 0.769531 -1.296875 0.84375 -1.285156 0.90625 -1.265625 C 0.976562 -1.253906 1.035156 -1.226562 1.078125 -1.1875 C 1.128906 -1.15625 1.164062 -1.113281 1.1875 -1.0625 C 1.21875 -1.007812 1.234375 -0.953125 1.234375 -0.890625 L 1.234375 0 L 0.953125 0 L 0.953125 -0.25 L 0.9375 -0.25 C 0.914062 -0.164062 0.867188 -0.0976562 0.796875 -0.046875 C 0.734375 -0.00390625 0.644531 0.015625 0.53125 0.015625 C 0.40625 0.015625 0.304688 -0.015625 0.234375 -0.078125 C 0.160156 -0.148438 0.125 -0.242188 0.125 -0.359375 Z M 0.640625 -0.203125 C 0.722656 -0.203125 0.789062 -0.222656 0.84375 -0.265625 C 0.90625 -0.304688 0.9375 -0.363281 0.9375 -0.4375 L 0.9375 -0.578125 L 0.625 -0.578125 C 0.550781 -0.578125 0.492188 -0.5625 0.453125 -0.53125 C 0.421875 -0.5 0.40625 -0.453125 0.40625 -0.390625 C 0.40625 -0.335938 0.425781 -0.289062 0.46875 -0.25 C 0.507812 -0.21875 0.566406 -0.203125 0.640625 -0.203125 Z M 0.640625 -0.203125 "/></g></g></g></g><g fill="#0b1320" fill-opacity="1"><g transform="translate(9.641924, 2.982325)"><g><path d="M 0.21875 -1.28125 L 0.5 -1.28125 L 0.5 -1.0625 L 0.515625 -1.0625 C 0.535156 -1.132812 0.570312 -1.191406 0.625 -1.234375 C 0.6875 -1.273438 0.769531 -1.296875 0.875 -1.296875 C 1.007812 -1.296875 1.113281 -1.253906 1.1875 -1.171875 C 1.269531 -1.085938 1.3125 -0.972656 1.3125 -0.828125 L 1.3125 -0.734375 L 1 -0.734375 L 1 -0.796875 C 1 -0.878906 0.976562 -0.941406 0.9375 -0.984375 C 0.894531 -1.035156 0.832031 -1.0625 0.75 -1.0625 C 0.675781 -1.0625 0.617188 -1.035156 0.578125 -0.984375 C 0.535156 -0.941406 0.515625 -0.878906 0.515625 -0.796875 L 0.515625 0 L 0.21875 0 Z M 0.21875 -1.28125 "/></g></g></g><g fill="#0b1320" fill-opacity="1"><g transform="translate(11.035653, 2.982325)"><g><path d="M 0.109375 -1.28125 L 0.328125 -1.28125 L 0.328125 -1.09375 L 0.359375 -1.09375 C 0.359375 -1.15625 0.378906 -1.203125 0.421875 -1.234375 C 0.460938 -1.273438 0.515625 -1.296875 0.578125 -1.296875 C 0.628906 -1.296875 0.675781 -1.273438 0.71875 -1.234375 C 0.757812 -1.203125 0.789062 -1.15625 0.8125 -1.09375 C 0.820312 -1.15625 0.84375 -1.203125 0.875 -1.234375 C 0.914062 -1.273438 0.96875 -1.296875 1.03125 -1.296875 C 1.113281 -1.296875 1.175781 -1.265625 1.21875 -1.203125 C 1.257812 -1.148438 1.28125 -1.078125 1.28125 -0.984375 L 1.28125 0 L 1.046875 0 L 1.046875 -0.953125 C 1.046875 -1.046875 1.003906 -1.09375 0.921875 -1.09375 C 0.859375 -1.09375 0.828125 -1.046875 0.828125 -0.953125 L 0.828125 0 L 0.578125 0 L 0.578125 -0.953125 C 0.578125 -1.035156 0.550781 -1.082031 0.5 -1.09375 C 0.488281 -1.09375 0.476562 -1.09375 0.46875 -1.09375 C 0.457031 -1.09375 0.445312 -1.09375 0.4375 -1.09375 C 0.382812 -1.082031 0.359375 -1.035156 0.359375 -0.953125 L 0.359375 0 L 0.109375 0 Z M 0.109375 -1.28125 "/></g></g></g><g clip-path="url(#6225944860)"><g fill="#0b1320" fill-opacity="1"><g transform="translate(12.429383, 2.982325)"><g><path d="M 0.125 -0.359375 C 0.125 -0.421875 0.132812 -0.476562 0.15625 -0.53125 C 0.175781 -0.582031 0.207031 -0.625 0.25 -0.65625 C 0.289062 -0.695312 0.34375 -0.722656 0.40625 -0.734375 C 0.46875 -0.753906 0.535156 -0.765625 0.609375 -0.765625 L 0.9375 -0.765625 L 0.9375 -0.875 C 0.9375 -0.9375 0.914062 -0.984375 0.875 -1.015625 C 0.832031 -1.054688 0.769531 -1.078125 0.6875 -1.078125 C 0.625 -1.078125 0.570312 -1.0625 0.53125 -1.03125 C 0.488281 -1.007812 0.457031 -0.976562 0.4375 -0.9375 L 0.15625 -0.9375 C 0.175781 -1.050781 0.234375 -1.140625 0.328125 -1.203125 C 0.421875 -1.265625 0.539062 -1.296875 0.6875 -1.296875 C 0.769531 -1.296875 0.84375 -1.285156 0.90625 -1.265625 C 0.976562 -1.253906 1.035156 -1.226562 1.078125 -1.1875 C 1.128906 -1.15625 1.164062 -1.113281 1.1875 -1.0625 C 1.21875 -1.007812 1.234375 -0.953125 1.234375 -0.890625 L 1.234375 0 L 0.953125 0 L 0.953125 -0.25 L 0.9375 -0.25 C 0.914062 -0.164062 0.867188 -0.0976562 0.796875 -0.046875 C 0.734375 -0.00390625 0.644531 0.015625 0.53125 0.015625 C 0.40625 0.015625 0.304688 -0.015625 0.234375 -0.078125 C 0.160156 -0.148438 0.125 -0.242188 0.125 -0.359375 Z M 0.640625 -0.203125 C 0.722656 -0.203125 0.789062 -0.222656 0.84375 -0.265625 C 0.90625 -0.304688 0.9375 -0.363281 0.9375 -0.4375 L 0.9375 -0.578125 L 0.625 -0.578125 C 0.550781 -0.578125 0.492188 -0.5625 0.453125 -0.53125 C 0.421875 -0.5 0.40625 -0.453125 0.40625 -0.390625 C 0.40625 -0.335938 0.425781 -0.289062 0.46875 -0.25 C 0.507812 -0.21875 0.566406 -0.203125 0.640625 -0.203125 Z M 0.640625 -0.203125 "/></g></g></g></g><g fill="#0b1320" fill-opacity="1"><g transform="translate(13.823112, 2.982325)"><g><path d="M 0.21875 -1.28125 L 0.5 -1.28125 L 0.5 -1.0625 L 0.515625 -1.0625 C 0.535156 -1.132812 0.570312 -1.191406 0.625 -1.234375 C 0.6875 -1.273438 0.769531 -1.296875 0.875 -1.296875 C 1.007812 -1.296875 1.113281 -1.253906 1.1875 -1.171875 C 1.269531 -1.085938 1.3125 -0.972656 1.3125 -0.828125 L 1.3125 -0.734375 L 1 -0.734375 L 1 -0.796875 C 1 -0.878906 0.976562 -0.941406 0.9375 -0.984375 C 0.894531 -1.035156 0.832031 -1.0625 0.75 -1.0625 C 0.675781 -1.0625 0.617188 -1.035156 0.578125 -0.984375 C 0.535156 -0.941406 0.515625 -0.878906 0.515625 -0.796875 L 0.515625 0 L 0.21875 0 Z M 0.21875 -1.28125 "/></g></g></g><g clip-path="url(#9b62e10968)"><g fill="#0b1320" fill-opacity="1"><g transform="translate(15.216842, 2.982325)"><g><path d="M 0.125 -0.359375 C 0.125 -0.421875 0.132812 -0.476562 0.15625 -0.53125 C 0.175781 -0.582031 0.207031 -0.625 0.25 -0.65625 C 0.289062 -0.695312 0.34375 -0.722656 0.40625 -0.734375 C 0.46875 -0.753906 0.535156 -0.765625 0.609375 -0.765625 L 0.9375 -0.765625 L 0.9375 -0.875 C 0.9375 -0.9375 0.914062 -0.984375 0.875 -1.015625 C 0.832031 -1.054688 0.769531 -1.078125 0.6875 -1.078125 C 0.625 -1.078125 0.570312 -1.0625 0.53125 -1.03125 C 0.488281 -1.007812 0.457031 -0.976562 0.4375 -0.9375 L 0.15625 -0.9375 C 0.175781 -1.050781 0.234375 -1.140625 0.328125 -1.203125 C 0.421875 -1.265625 0.539062 -1.296875 0.6875 -1.296875 C 0.769531 -1.296875 0.84375 -1.285156 0.90625 -1.265625 C 0.976562 -1.253906 1.035156 -1.226562 1.078125 -1.1875 C 1.128906 -1.15625 1.164062 -1.113281 1.1875 -1.0625 C 1.21875 -1.007812 1.234375 -0.953125 1.234375 -0.890625 L 1.234375 0 L 0.953125 0 L 0.953125 -0.25 L 0.9375 -0.25 C 0.914062 -0.164062 0.867188 -0.0976562 0.796875 -0.046875 C 0.734375 -0.00390625 0.644531 0.015625 0.53125 0.015625 C 0.40625 0.015625 0.304688 -0.015625 0.234375 -0.078125 C 0.160156 -0.148438 0.125 -0.242188 0.125 -0.359375 Z M 0.640625 -0.203125 C 0.722656 -0.203125 0.789062 -0.222656 0.84375 -0.265625 C 0.90625 -0.304688 0.9375 -0.363281 0.9375 -0.4375 L 0.9375 -0.578125 L 0.625 -0.578125 C 0.550781 -0.578125 0.492188 -0.5625 0.453125 -0.53125 C 0.421875 -0.5 0.40625 -0.453125 0.40625 -0.390625 C 0.40625 -0.335938 0.425781 -0.289062 0.46875 -0.25 C 0.507812 -0.21875 0.566406 -0.203125 0.640625 -0.203125 Z M 0.640625 -0.203125 "/></g></g></g></g><g clip-path="url(#3283b61a28)"><g fill="#0b1320" fill-opacity="1"><g transform="translate(16.610571, 2.982325)"><g><path d="M 0.71875 0.015625 C 0.632812 0.015625 0.554688 0.00390625 0.484375 -0.015625 C 0.410156 -0.0351562 0.347656 -0.0664062 0.296875 -0.109375 C 0.253906 -0.148438 0.21875 -0.203125 0.1875 -0.265625 C 0.164062 -0.328125 0.15625 -0.394531 0.15625 -0.46875 L 0.15625 -0.796875 C 0.15625 -0.878906 0.164062 -0.945312 0.1875 -1 C 0.21875 -1.0625 0.253906 -1.113281 0.296875 -1.15625 C 0.347656 -1.207031 0.410156 -1.242188 0.484375 -1.265625 C 0.554688 -1.285156 0.632812 -1.296875 0.71875 -1.296875 C 0.789062 -1.296875 0.859375 -1.285156 0.921875 -1.265625 C 0.984375 -1.242188 1.035156 -1.210938 1.078125 -1.171875 C 1.128906 -1.140625 1.171875 -1.09375 1.203125 -1.03125 C 1.234375 -0.976562 1.253906 -0.921875 1.265625 -0.859375 L 0.984375 -0.859375 C 0.972656 -0.910156 0.941406 -0.953125 0.890625 -0.984375 C 0.835938 -1.023438 0.78125 -1.046875 0.71875 -1.046875 C 0.632812 -1.046875 0.566406 -1.023438 0.515625 -0.984375 C 0.472656 -0.941406 0.453125 -0.878906 0.453125 -0.796875 L 0.453125 -0.46875 C 0.453125 -0.394531 0.472656 -0.335938 0.515625 -0.296875 C 0.566406 -0.253906 0.632812 -0.234375 0.71875 -0.234375 C 0.78125 -0.234375 0.835938 -0.25 0.890625 -0.28125 C 0.941406 -0.320312 0.972656 -0.367188 0.984375 -0.421875 L 1.265625 -0.421875 C 1.253906 -0.359375 1.234375 -0.296875 1.203125 -0.234375 C 1.171875 -0.179688 1.128906 -0.132812 1.078125 -0.09375 C 1.035156 -0.0625 0.984375 -0.0351562 0.921875 -0.015625 C 0.859375 0.00390625 0.789062 0.015625 0.71875 0.015625 Z M 0.71875 0.015625 "/></g></g></g></g><g fill="#0b1320" fill-opacity="1"><g transform="translate(18.004301, 2.982325)"><g><path d="M 0.1875 -0.265625 L 0.65625 -0.265625 L 0.65625 -1.015625 L 0.25 -1.015625 L 0.25 -1.28125 L 0.9375 -1.28125 L 0.9375 -0.265625 L 1.296875 -0.265625 L 1.296875 0 L 0.1875 0 Z M 0.5625 -1.625 C 0.5625 -1.664062 0.578125 -1.703125 0.609375 -1.734375 C 0.640625 -1.765625 0.679688 -1.78125 0.734375 -1.78125 L 0.796875 -1.78125 C 0.847656 -1.78125 0.882812 -1.765625 0.90625 -1.734375 C 0.9375 -1.703125 0.953125 -1.664062 0.953125 -1.625 C 0.953125 -1.582031 0.9375 -1.546875 0.90625 -1.515625 C 0.875 -1.484375 0.835938 -1.46875 0.796875 -1.46875 L 0.734375 -1.46875 C 0.679688 -1.46875 0.640625 -1.484375 0.609375 -1.515625 C 0.578125 -1.546875 0.5625 -1.582031 0.5625 -1.625 Z M 0.5625 -1.625 "/></g></g></g><g clip-path="url(#053fa084b3)"><g fill="#0b1320" fill-opacity="1"><g transform="translate(19.39803, 2.982325)"><g><path d="M 0.65625 0.015625 C 0.5 0.015625 0.375 -0.0078125 0.28125 -0.0625 C 0.195312 -0.125 0.148438 -0.210938 0.140625 -0.328125 L 0.4375 -0.328125 C 0.445312 -0.285156 0.46875 -0.253906 0.5 -0.234375 C 0.539062 -0.210938 0.59375 -0.203125 0.65625 -0.203125 L 0.75 -0.203125 C 0.820312 -0.203125 0.875 -0.210938 0.90625 -0.234375 C 0.945312 -0.265625 0.96875 -0.304688 0.96875 -0.359375 C 0.96875 -0.441406 0.898438 -0.492188 0.765625 -0.515625 L 0.59375 -0.53125 C 0.445312 -0.550781 0.335938 -0.59375 0.265625 -0.65625 C 0.191406 -0.71875 0.15625 -0.804688 0.15625 -0.921875 C 0.15625 -1.046875 0.195312 -1.140625 0.28125 -1.203125 C 0.375 -1.265625 0.5 -1.296875 0.65625 -1.296875 L 0.75 -1.296875 C 0.894531 -1.296875 1.007812 -1.265625 1.09375 -1.203125 C 1.175781 -1.148438 1.226562 -1.070312 1.25 -0.96875 L 0.9375 -0.96875 C 0.9375 -1 0.914062 -1.023438 0.875 -1.046875 C 0.84375 -1.066406 0.800781 -1.078125 0.75 -1.078125 L 0.65625 -1.078125 C 0.519531 -1.078125 0.453125 -1.03125 0.453125 -0.9375 C 0.453125 -0.851562 0.507812 -0.804688 0.625 -0.796875 L 0.8125 -0.765625 C 0.957031 -0.742188 1.066406 -0.703125 1.140625 -0.640625 C 1.210938 -0.578125 1.25 -0.488281 1.25 -0.375 C 1.25 -0.25 1.203125 -0.148438 1.109375 -0.078125 C 1.023438 -0.015625 0.90625 0.015625 0.75 0.015625 Z M 0.65625 0.015625 "/></g></g></g></g><g clip-path="url(#4bdf9b8cc7)"><g fill="#0b1320" fill-opacity="1"><g transform="translate(20.79176, 2.982325)"><g><path d="M 0.109375 -1.28125 L 0.453125 -1.28125 L 0.453125 -1.671875 L 0.75 -1.671875 L 0.75 -1.28125 L 1.234375 -1.28125 L 1.234375 -1.015625 L 0.75 -1.015625 L 0.75 -0.390625 C 0.75 -0.347656 0.757812 -0.316406 0.78125 -0.296875 C 0.8125 -0.273438 0.847656 -0.265625 0.890625 -0.265625 L 1.21875 -0.265625 L 1.21875 0 L 0.859375 0 C 0.734375 0 0.632812 -0.0351562 0.5625 -0.109375 C 0.488281 -0.179688 0.453125 -0.273438 0.453125 -0.390625 L 0.453125 -1.015625 L 0.109375 -1.015625 Z M 0.109375 -1.28125 "/></g></g></g></g></g></g></svg>