<svg xmlns="http://www.w3.org/2000/svg" xmlns:xlink="http://www.w3.org/1999/xlink" width="96" zoomAndPan="magnify" viewBox="0 0 72 72" height="96" preserveAspectRatio="xMidYMid meet" version="1.0"><defs><g/><clipPath id="b41eb247a2"><path d="M 2.773438 2.773438 L 69.226562 2.773438 L 69.226562 69.226562 L 2.773438 69.226562 Z M 2.773438 2.773438 " clip-rule="nonzero"/></clipPath><clipPath id="618158c723"><path d="M 10.273438 2.773438 L 61.726562 2.773438 C 65.867188 2.773438 69.226562 6.132812 69.226562 10.273438 L 69.226562 61.726562 C 69.226562 65.867188 65.867188 69.226562 61.726562 69.226562 L 10.273438 69.226562 C 6.132812 69.226562 2.773438 65.867188 2.773438 61.726562 L 2.773438 10.273438 C 2.773438 6.132812 6.132812 2.773438 10.273438 2.773438 Z M 10.273438 2.773438 " clip-rule="nonzero"/></clipPath><clipPath id="4101d292fb"><path d="M 0.773438 0.773438 L 67.226562 0.773438 L 67.226562 67.226562 L 0.773438 67.226562 Z M 0.773438 0.773438 " clip-rule="nonzero"/></clipPath><clipPath id="50905d3769"><path d="M 8.273438 0.773438 L 59.726562 0.773438 C 63.867188 0.773438 67.226562 4.132812 67.226562 8.273438 L 67.226562 59.726562 C 67.226562 63.867188 63.867188 67.226562 59.726562 67.226562 L 8.273438 67.226562 C 4.132812 67.226562 0.773438 63.867188 0.773438 59.726562 L 0.773438 8.273438 C 0.773438 4.132812 4.132812 0.773438 8.273438 0.773438 Z M 8.273438 0.773438 " clip-rule="nonzero"/></clipPath><clipPath id="7d4bab6371"><rect x="0" width="68" y="0" height="68"/></clipPath><clipPath id="bd9f2c37ff"><path d="M 42.746094 7.199219 L 59.996094 7.199219 L 59.996094 19 L 42.746094 19 Z M 42.746094 7.199219 " clip-rule="nonzero"/></clipPath><clipPath id="e1942f18f5"><path d="M 57 24 L 59.996094 24 L 59.996094 25.199219 L 57 25.199219 Z M 57 24 " clip-rule="nonzero"/></clipPath><clipPath id="65149349a7"><path d="M 51 24 L 53 24 L 53 25.199219 L 51 25.199219 Z M 51 24 " clip-rule="nonzero"/></clipPath><clipPath id="c530c2f09b"><path d="M 49 24 L 51 24 L 51 25.199219 L 49 25.199219 Z M 49 24 " clip-rule="nonzero"/></clipPath><clipPath id="83803e272d"><rect x="0" width="51" y="0" height="28"/></clipPath><clipPath id="628cb200c8"><rect x="0" width="45" y="0" height="8"/></clipPath></defs><g clip-path="url(#b41eb247a2)"><g clip-path="url(#618158c723)"><g transform="matrix(1, 0, 0, 1, 2, 2)"><g clip-path="url(#7d4bab6371)"><g clip-path="url(#4101d292fb)"><g clip-path="url(#50905d3769)"><path fill="#f3f6fa" d="M 0.773438 0.773438 L 67.226562 0.773438 L 67.226562 67.226562 L 0.773438 67.226562 Z M 0.773438 0.773438 " fill-opacity="1" fill-rule="nonzero"/></g></g></g></g></g></g><g clip-path="url(#bd9f2c37ff)"><path fill="#0b1320" d="M 60 7.363281 C 59.964844 7.25 59.847656 7.183594 59.734375 7.210938 C 59.691406 7.21875 55.484375 8.144531 51.328125 9.078125 C 48.890625 9.625 46.945312 10.066406 45.550781 10.394531 C 44.722656 10.589844 44.078125 10.742188 43.640625 10.851562 C 43.40625 10.914062 43.222656 10.960938 43.101562 10.996094 C 42.910156 11.054688 42.746094 11.101562 42.75 11.289062 C 42.75 11.359375 42.785156 11.429688 42.84375 11.46875 C 43.808594 12.164062 44.808594 12.875 45.875 13.460938 C 45.878906 13.480469 45.882812 13.496094 45.886719 13.515625 L 47.59375 17.945312 C 47.621094 18.011719 47.671875 18.058594 47.738281 18.082031 C 47.761719 18.089844 47.785156 18.089844 47.808594 18.089844 C 47.851562 18.089844 47.894531 18.078125 47.933594 18.054688 L 50.648438 16.300781 C 50.667969 16.285156 50.683594 16.269531 50.699219 16.253906 L 52.816406 17.898438 C 52.855469 17.929688 52.902344 17.949219 52.953125 17.949219 C 52.96875 17.949219 52.980469 17.945312 52.992188 17.945312 C 53.054688 17.933594 53.109375 17.898438 53.144531 17.847656 L 59.964844 7.625 C 59.992188 7.585938 60.003906 7.542969 60 7.496094 C 60.011719 7.453125 60.015625 7.40625 60 7.363281 Z M 57.542969 8.160156 L 46.175781 13.105469 C 45.234375 12.601562 44.34375 11.980469 43.476562 11.363281 C 45.183594 10.914062 51.960938 9.394531 57.542969 8.160156 Z M 46.375 13.515625 L 57.507812 8.671875 L 48.671875 14.289062 C 48.609375 14.328125 48.570312 14.394531 48.566406 14.46875 C 48.566406 14.472656 48.566406 14.476562 48.566406 14.480469 C 48.5625 14.488281 48.5625 14.496094 48.558594 14.503906 L 47.8125 17.238281 Z M 48.265625 17.296875 L 48.929688 14.875 L 50.328125 15.964844 Z M 52.902344 17.390625 L 49.1875 14.5 L 58.988281 8.269531 Z M 52.902344 17.390625 " fill-opacity="1" fill-rule="nonzero"/></g><g clip-path="url(#e1942f18f5)"><path fill="#0b1320" d="M 59.023438 24.882812 C 58.785156 24.722656 58.515625 24.59375 58.222656 24.492188 C 58.101562 24.453125 57.972656 24.515625 57.933594 24.636719 C 57.894531 24.753906 57.957031 24.882812 58.074219 24.921875 C 58.332031 25.011719 58.566406 25.125 58.769531 25.261719 C 58.808594 25.289062 58.851562 25.300781 58.894531 25.300781 C 58.96875 25.300781 59.039062 25.265625 59.085938 25.199219 C 59.15625 25.097656 59.128906 24.953125 59.023438 24.882812 Z M 59.023438 24.882812 " fill-opacity="1" fill-rule="nonzero"/></g><path fill="#0b1320" d="M 49.320312 24.015625 C 49.425781 23.984375 49.527344 23.953125 49.632812 23.921875 C 49.75 23.878906 49.816406 23.753906 49.773438 23.632812 C 49.734375 23.511719 49.605469 23.449219 49.488281 23.488281 C 49.375 23.527344 49.257812 23.5625 49.144531 23.59375 C 49.132812 23.546875 49.128906 23.496094 49.125 23.449219 C 49.113281 23.324219 49.007812 23.230469 48.882812 23.238281 C 48.757812 23.246094 48.660156 23.355469 48.667969 23.480469 C 48.675781 23.554688 48.683594 23.625 48.699219 23.695312 C 48.582031 23.722656 48.507812 23.839844 48.53125 23.960938 C 48.554688 24.082031 48.671875 24.164062 48.796875 24.140625 C 48.816406 24.136719 48.835938 24.132812 48.859375 24.128906 C 48.902344 24.210938 48.957031 24.292969 49.015625 24.371094 C 49.0625 24.429688 49.128906 24.457031 49.195312 24.457031 C 49.246094 24.457031 49.292969 24.441406 49.335938 24.410156 C 49.433594 24.335938 49.453125 24.191406 49.375 24.089844 C 49.355469 24.066406 49.339844 24.042969 49.320312 24.015625 Z M 49.320312 24.015625 " fill-opacity="1" fill-rule="nonzero"/><path fill="#0b1320" d="M 47.910156 23.796875 C 47.667969 23.8125 47.421875 23.8125 47.179688 23.796875 C 47.15625 23.792969 47.132812 23.792969 47.109375 23.792969 C 46.984375 23.78125 46.875 23.875 46.863281 24 C 46.855469 24.125 46.949219 24.234375 47.074219 24.246094 C 47.101562 24.246094 47.125 24.25 47.152344 24.25 C 47.28125 24.257812 47.414062 24.261719 47.542969 24.261719 C 47.675781 24.261719 47.808594 24.257812 47.9375 24.25 C 48.066406 24.242188 48.160156 24.136719 48.152344 24.007812 C 48.144531 23.882812 48.035156 23.789062 47.910156 23.796875 Z M 47.910156 23.796875 " fill-opacity="1" fill-rule="nonzero"/><g clip-path="url(#65149349a7)"><path fill="#0b1320" d="M 52.324219 24.558594 L 51.492188 24.621094 C 51.367188 24.628906 51.273438 24.738281 51.28125 24.863281 C 51.289062 24.984375 51.390625 25.074219 51.507812 25.074219 C 51.515625 25.074219 51.519531 25.074219 51.527344 25.074219 L 52.359375 25.011719 C 52.484375 25 52.578125 24.890625 52.566406 24.765625 C 52.558594 24.640625 52.449219 24.546875 52.324219 24.558594 Z M 52.324219 24.558594 " fill-opacity="1" fill-rule="nonzero"/></g><path fill="#0b1320" d="M 46.472656 18.003906 C 46.21875 18.191406 46 18.363281 45.804688 18.527344 C 45.707031 18.609375 45.695312 18.75 45.777344 18.847656 C 45.824219 18.902344 45.886719 18.929688 45.953125 18.929688 C 46.003906 18.929688 46.054688 18.910156 46.097656 18.875 C 46.285156 18.714844 46.496094 18.550781 46.742188 18.367188 C 46.84375 18.292969 46.863281 18.148438 46.789062 18.050781 C 46.714844 17.949219 46.574219 17.925781 46.472656 18.003906 Z M 46.472656 18.003906 " fill-opacity="1" fill-rule="nonzero"/><path fill="#0b1320" d="M 46.328125 23.660156 C 46.0625 23.589844 45.820312 23.496094 45.609375 23.375 C 45.5 23.3125 45.359375 23.351562 45.296875 23.460938 C 45.238281 23.570312 45.273438 23.707031 45.382812 23.769531 C 45.628906 23.910156 45.90625 24.019531 46.210938 24.101562 C 46.230469 24.105469 46.25 24.109375 46.269531 24.109375 C 46.371094 24.109375 46.460938 24.042969 46.488281 23.941406 C 46.519531 23.820312 46.449219 23.695312 46.328125 23.660156 Z M 46.328125 23.660156 " fill-opacity="1" fill-rule="nonzero"/><path fill="#0b1320" d="M 44.695312 20.109375 C 44.734375 20.136719 44.777344 20.148438 44.820312 20.148438 C 44.894531 20.148438 44.96875 20.109375 45.011719 20.042969 C 45.140625 19.84375 45.304688 19.636719 45.503906 19.425781 C 45.59375 19.335938 45.589844 19.191406 45.496094 19.105469 C 45.40625 19.019531 45.261719 19.023438 45.175781 19.113281 C 44.957031 19.34375 44.773438 19.574219 44.628906 19.796875 C 44.558594 19.902344 44.589844 20.042969 44.695312 20.109375 Z M 44.695312 20.109375 " fill-opacity="1" fill-rule="nonzero"/><g clip-path="url(#c530c2f09b)"><path fill="#0b1320" d="M 50.683594 24.644531 C 50.390625 24.628906 50.144531 24.585938 49.9375 24.507812 C 49.820312 24.460938 49.691406 24.519531 49.644531 24.636719 C 49.601562 24.757812 49.660156 24.886719 49.777344 24.933594 C 50.027344 25.027344 50.320312 25.082031 50.664062 25.097656 C 50.667969 25.097656 50.671875 25.097656 50.675781 25.097656 C 50.796875 25.097656 50.898438 25.003906 50.902344 24.882812 C 50.910156 24.753906 50.8125 24.648438 50.683594 24.644531 Z M 50.683594 24.644531 " fill-opacity="1" fill-rule="nonzero"/></g><path fill="#0b1320" d="M 44.957031 22.808594 C 44.835938 22.644531 44.738281 22.457031 44.675781 22.25 C 44.636719 22.132812 44.507812 22.066406 44.390625 22.101562 C 44.269531 22.140625 44.203125 22.269531 44.242188 22.386719 C 44.320312 22.644531 44.4375 22.875 44.589844 23.082031 C 44.621094 23.121094 44.648438 23.15625 44.679688 23.195312 C 44.726562 23.246094 44.789062 23.273438 44.855469 23.273438 C 44.90625 23.273438 44.957031 23.257812 45 23.222656 C 45.097656 23.140625 45.109375 22.996094 45.027344 22.902344 C 45.003906 22.871094 44.980469 22.839844 44.957031 22.808594 Z M 44.957031 22.808594 " fill-opacity="1" fill-rule="nonzero"/><path fill="#0b1320" d="M 57.363281 24.304688 C 57.128906 24.273438 56.882812 24.261719 56.609375 24.261719 C 56.570312 24.261719 56.535156 24.261719 56.5 24.261719 C 56.375 24.261719 56.273438 24.367188 56.277344 24.492188 C 56.277344 24.617188 56.378906 24.71875 56.503906 24.71875 C 56.503906 24.71875 56.503906 24.71875 56.507812 24.71875 C 56.539062 24.714844 56.574219 24.714844 56.609375 24.714844 C 56.863281 24.714844 57.09375 24.730469 57.308594 24.753906 C 57.316406 24.753906 57.328125 24.757812 57.335938 24.757812 C 57.449219 24.757812 57.546875 24.671875 57.5625 24.554688 C 57.578125 24.429688 57.488281 24.316406 57.363281 24.304688 Z M 57.363281 24.304688 " fill-opacity="1" fill-rule="nonzero"/><path fill="#0b1320" d="M 52.378906 21.652344 C 52.265625 21.59375 52.128906 21.632812 52.066406 21.742188 C 51.960938 21.9375 51.800781 22.101562 51.6875 22.207031 C 51.652344 22.242188 51.613281 22.273438 51.574219 22.308594 C 51.480469 22.390625 51.46875 22.535156 51.550781 22.628906 C 51.597656 22.679688 51.660156 22.707031 51.722656 22.707031 C 51.777344 22.707031 51.828125 22.6875 51.871094 22.652344 C 51.914062 22.617188 51.953125 22.582031 51.996094 22.542969 C 52.132812 22.417969 52.328125 22.214844 52.464844 21.960938 C 52.527344 21.851562 52.488281 21.714844 52.378906 21.652344 Z M 52.378906 21.652344 " fill-opacity="1" fill-rule="nonzero"/><path fill="#0b1320" d="M 52.511719 20.945312 C 52.339844 20.652344 51.992188 20.46875 51.605469 20.464844 C 51.480469 20.464844 51.378906 20.566406 51.375 20.691406 C 51.375 20.820312 51.476562 20.921875 51.601562 20.921875 C 51.828125 20.921875 52.03125 21.023438 52.117188 21.171875 C 52.160156 21.246094 52.238281 21.285156 52.316406 21.285156 C 52.355469 21.285156 52.394531 21.277344 52.429688 21.253906 C 52.539062 21.191406 52.574219 21.050781 52.511719 20.945312 Z M 52.511719 20.945312 " fill-opacity="1" fill-rule="nonzero"/><path fill="#0b1320" d="M 53.988281 24.429688 L 53.15625 24.492188 C 53.03125 24.503906 52.9375 24.613281 52.945312 24.738281 C 52.953125 24.855469 53.054688 24.949219 53.171875 24.949219 C 53.179688 24.949219 53.183594 24.945312 53.191406 24.945312 L 54.023438 24.882812 C 54.148438 24.875 54.242188 24.765625 54.230469 24.636719 C 54.222656 24.511719 54.113281 24.417969 53.988281 24.429688 Z M 53.988281 24.429688 " fill-opacity="1" fill-rule="nonzero"/><path fill="#0b1320" d="M 44.34375 21.726562 C 44.464844 21.726562 44.566406 21.625 44.570312 21.5 C 44.574219 21.246094 44.613281 20.992188 44.6875 20.742188 C 44.726562 20.621094 44.65625 20.492188 44.535156 20.457031 C 44.417969 20.421875 44.289062 20.488281 44.253906 20.609375 C 44.167969 20.902344 44.121094 21.199219 44.113281 21.492188 C 44.113281 21.617188 44.210938 21.722656 44.339844 21.726562 C 44.339844 21.726562 44.339844 21.726562 44.34375 21.726562 Z M 44.34375 21.726562 " fill-opacity="1" fill-rule="nonzero"/><path fill="#0b1320" d="M 51.25 22.855469 C 51.179688 22.75 51.039062 22.722656 50.933594 22.789062 C 50.710938 22.9375 50.472656 23.070312 50.234375 23.1875 C 50.121094 23.242188 50.070312 23.378906 50.125 23.488281 C 50.164062 23.570312 50.246094 23.617188 50.332031 23.617188 C 50.363281 23.617188 50.398438 23.613281 50.429688 23.597656 C 50.691406 23.472656 50.941406 23.328125 51.183594 23.171875 C 51.289062 23.101562 51.316406 22.960938 51.25 22.855469 Z M 51.25 22.855469 " fill-opacity="1" fill-rule="nonzero"/><path fill="#0b1320" d="M 50.109375 21.605469 C 50.160156 21.605469 50.207031 21.589844 50.25 21.554688 C 50.464844 21.386719 50.691406 21.238281 50.910156 21.128906 C 51.023438 21.074219 51.070312 20.9375 51.011719 20.824219 C 50.957031 20.710938 50.820312 20.664062 50.707031 20.722656 C 50.460938 20.847656 50.203125 21.011719 49.96875 21.199219 C 49.867188 21.277344 49.851562 21.421875 49.929688 21.519531 C 49.976562 21.574219 50.042969 21.605469 50.109375 21.605469 Z M 50.109375 21.605469 " fill-opacity="1" fill-rule="nonzero"/><path fill="#0b1320" d="M 55.652344 24.300781 C 55.558594 24.308594 55.464844 24.316406 55.375 24.324219 L 54.820312 24.367188 C 54.695312 24.375 54.601562 24.484375 54.609375 24.609375 C 54.617188 24.730469 54.71875 24.820312 54.835938 24.820312 C 54.84375 24.820312 54.847656 24.820312 54.855469 24.820312 L 55.40625 24.777344 C 55.5 24.769531 55.59375 24.761719 55.683594 24.757812 C 55.808594 24.746094 55.90625 24.636719 55.894531 24.511719 C 55.886719 24.386719 55.777344 24.292969 55.652344 24.300781 Z M 55.652344 24.300781 " fill-opacity="1" fill-rule="nonzero"/><path fill="#0b1320" d="M 48.964844 22.863281 C 48.996094 22.878906 49.027344 22.882812 49.058594 22.882812 C 49.144531 22.882812 49.226562 22.832031 49.265625 22.75 C 49.359375 22.535156 49.5 22.316406 49.683594 22.101562 C 49.761719 22.007812 49.75 21.863281 49.65625 21.78125 C 49.558594 21.703125 49.414062 21.714844 49.335938 21.808594 C 49.125 22.054688 48.960938 22.308594 48.851562 22.5625 C 48.800781 22.679688 48.851562 22.8125 48.964844 22.863281 Z M 48.964844 22.863281 " fill-opacity="1" fill-rule="nonzero"/><g transform="matrix(1, 0, 0, 1, 10, 22)"><g clip-path="url(#83803e272d)"><g fill="#0b1320" fill-opacity="1"><g transform="translate(1.44942, 18.942553)"><g><path d="M 14.421875 -14.40625 L 14.421875 -0.53125 C 14.421875 0.507812 14.140625 1.453125 13.578125 2.296875 C 13.015625 3.148438 12.164062 3.847656 11.03125 4.390625 C 9.90625 4.941406 8.488281 5.300781 6.78125 5.46875 C 6.125 5.53125 5.484375 5.515625 4.859375 5.421875 C 4.234375 5.328125 3.664062 5.148438 3.15625 4.890625 C 2.644531 4.628906 2.210938 4.289062 1.859375 3.875 C 1.503906 3.46875 1.257812 2.972656 1.125 2.390625 C 1 1.816406 1.023438 1.15625 1.203125 0.40625 C 1.335938 -0.164062 1.535156 -0.757812 1.796875 -1.375 C 2.054688 -2 2.347656 -2.613281 2.671875 -3.21875 C 3.003906 -3.820312 3.34375 -4.398438 3.6875 -4.953125 C 4.039062 -5.503906 4.375 -6.003906 4.6875 -6.453125 C 4.707031 -6.492188 4.753906 -6.492188 4.828125 -6.453125 C 4.898438 -6.421875 4.972656 -6.367188 5.046875 -6.296875 C 5.117188 -6.234375 5.175781 -6.164062 5.21875 -6.09375 C 5.257812 -6.03125 5.269531 -5.976562 5.25 -5.9375 C 4.96875 -5.539062 4.695312 -5.117188 4.4375 -4.671875 C 4.1875 -4.222656 3.960938 -3.765625 3.765625 -3.296875 C 3.566406 -2.835938 3.425781 -2.382812 3.34375 -1.9375 C 3.257812 -1.488281 3.253906 -1.0625 3.328125 -0.65625 C 3.398438 -0.257812 3.570312 0.09375 3.84375 0.40625 C 4.132812 0.757812 4.515625 1.035156 4.984375 1.234375 C 5.453125 1.429688 5.972656 1.566406 6.546875 1.640625 C 7.117188 1.722656 7.710938 1.742188 8.328125 1.703125 C 8.941406 1.671875 9.546875 1.585938 10.140625 1.453125 C 10.742188 1.328125 11.300781 1.15625 11.8125 0.9375 L 11.8125 -11.71875 L 14.28125 -14.453125 C 14.300781 -14.484375 14.328125 -14.488281 14.359375 -14.46875 C 14.398438 -14.457031 14.421875 -14.4375 14.421875 -14.40625 Z M 14.421875 -14.40625 "/></g></g></g><g fill="#0b1320" fill-opacity="1"><g transform="translate(16.933666, 18.942553)"><g><path d="M 1.203125 0 L 1.0625 0 L 1.0625 -13.0625 L 3.53125 -15.796875 C 3.550781 -15.828125 3.578125 -15.832031 3.609375 -15.8125 C 3.648438 -15.800781 3.671875 -15.78125 3.671875 -15.75 L 3.671875 -3.203125 Z M 1.203125 0 "/></g></g></g><g fill="#0b1320" fill-opacity="1"><g transform="translate(26.253878, 10.787331)"><g><path d="M 5.21875 -3.125 L 5.3125 -2.984375 C 5.21875 -2.546875 5.023438 -2.179688 4.734375 -1.890625 C 4.441406 -1.609375 4.085938 -1.382812 3.671875 -1.21875 C 3.265625 -1.050781 2.835938 -0.921875 2.390625 -0.828125 C 1.941406 -0.742188 1.515625 -0.679688 1.109375 -0.640625 C 0.710938 -0.609375 0.367188 -0.578125 0.078125 -0.546875 C 0.015625 -0.546875 -0.00390625 -0.570312 0.015625 -0.625 L 0.640625 -1.796875 C 1.773438 -1.921875 2.703125 -2.097656 3.421875 -2.328125 C 4.140625 -2.554688 4.738281 -2.820312 5.21875 -3.125 Z M 5.21875 -3.125 "/></g></g></g><g fill="#0b1320" fill-opacity="1"><g transform="translate(20.502869, 18.942553)"><g><path d="M 12.75 -6.359375 L 13.109375 -6.265625 C 13.234375 -6.234375 13.28125 -6.144531 13.25 -6 C 13.0625 -5.363281 12.882812 -4.75 12.71875 -4.15625 C 12.5625 -3.5625 12.367188 -3.015625 12.140625 -2.515625 C 11.921875 -2.015625 11.640625 -1.578125 11.296875 -1.203125 C 10.960938 -0.828125 10.535156 -0.53125 10.015625 -0.3125 C 9.503906 -0.101562 8.859375 0 8.078125 0 L 5.90625 0 C 5.875 0 5.847656 -0.0078125 5.828125 -0.03125 C 5.804688 -0.0625 5.804688 -0.0859375 5.828125 -0.109375 L 6.046875 -0.375 C 5.765625 -0.257812 5.453125 -0.164062 5.109375 -0.09375 C 4.765625 -0.03125 4.378906 0 3.953125 0 L 1.765625 0 C 1.734375 0 1.707031 -0.0078125 1.6875 -0.03125 C 1.675781 -0.0625 1.679688 -0.0859375 1.703125 -0.109375 L 1.921875 -0.375 C 1.640625 -0.257812 1.320312 -0.164062 0.96875 -0.09375 C 0.625 -0.03125 0.238281 0 -0.1875 0 L -2.515625 0 L -2.4375 -0.28125 L -0.234375 -3.125 L 0 -3.234375 L 2.0625 -3.234375 C 2.382812 -3.234375 2.65625 -3.316406 2.875 -3.484375 C 3.09375 -3.648438 3.28125 -3.875 3.4375 -4.15625 C 3.59375 -4.445312 3.726562 -4.769531 3.84375 -5.125 C 3.96875 -5.476562 4.097656 -5.847656 4.234375 -6.234375 C 4.242188 -6.285156 4.273438 -6.320312 4.328125 -6.34375 C 4.390625 -6.375 4.441406 -6.378906 4.484375 -6.359375 L 4.84375 -6.265625 C 4.976562 -6.234375 5.023438 -6.144531 4.984375 -6 C 4.847656 -5.507812 4.71875 -5.03125 4.59375 -4.5625 C 4.46875 -4.09375 4.332031 -3.648438 4.1875 -3.234375 L 6.203125 -3.234375 C 6.523438 -3.234375 6.796875 -3.316406 7.015625 -3.484375 C 7.234375 -3.648438 7.414062 -3.875 7.5625 -4.15625 C 7.71875 -4.445312 7.859375 -4.769531 7.984375 -5.125 C 8.109375 -5.488281 8.238281 -5.863281 8.375 -6.25 C 8.382812 -6.300781 8.414062 -6.335938 8.46875 -6.359375 C 8.519531 -6.378906 8.570312 -6.378906 8.625 -6.359375 L 8.96875 -6.265625 C 9.101562 -6.234375 9.15625 -6.144531 9.125 -6 C 8.988281 -5.507812 8.851562 -5.03125 8.71875 -4.5625 C 8.59375 -4.09375 8.457031 -3.648438 8.3125 -3.234375 L 10.328125 -3.234375 C 10.648438 -3.234375 10.921875 -3.316406 11.140625 -3.484375 C 11.359375 -3.648438 11.539062 -3.875 11.6875 -4.15625 C 11.84375 -4.445312 11.984375 -4.769531 12.109375 -5.125 C 12.234375 -5.488281 12.363281 -5.863281 12.5 -6.25 C 12.507812 -6.300781 12.539062 -6.335938 12.59375 -6.359375 C 12.644531 -6.378906 12.695312 -6.378906 12.75 -6.359375 Z M 12.75 -6.359375 "/></g></g></g><g fill="#0b1320" fill-opacity="1"><g transform="translate(26.349131, 18.942553)"><g><path d="M 0.171875 5.5 C 0.0976562 5.5 0.046875 5.472656 0.015625 5.421875 C -0.00390625 5.378906 0 5.332031 0.03125 5.28125 L 2.140625 2.109375 C 2.703125 2.066406 3.289062 2.023438 3.90625 1.984375 C 4.519531 1.941406 5.128906 1.882812 5.734375 1.8125 C 6.335938 1.75 6.910156 1.660156 7.453125 1.546875 C 7.992188 1.441406 8.472656 1.300781 8.890625 1.125 C 9.304688 0.945312 9.632812 0.722656 9.875 0.453125 C 10.113281 0.191406 10.234375 -0.125 10.234375 -0.5 L 10.234375 -2.15625 C 10.234375 -2.46875 10.335938 -2.722656 10.546875 -2.921875 C 10.753906 -3.128906 11.015625 -3.234375 11.328125 -3.234375 L 14.125 -3.234375 L 11.65625 0 C 11.65625 0.832031 11.53125 1.546875 11.28125 2.140625 C 11.039062 2.742188 10.695312 3.242188 10.25 3.640625 C 9.800781 4.046875 9.28125 4.367188 8.6875 4.609375 C 8.09375 4.859375 7.445312 5.046875 6.75 5.171875 C 6.0625 5.296875 5.34375 5.378906 4.59375 5.421875 C 3.84375 5.472656 3.09375 5.5 2.34375 5.5 C 1.601562 5.5 0.878906 5.5 0.171875 5.5 Z M 0.171875 5.5 "/></g></g></g><g fill="#0b1320" fill-opacity="1"><g transform="translate(42.362938, 23.549725)"><g><path d="M 5.21875 -3.125 L 5.3125 -2.984375 C 5.21875 -2.546875 5.023438 -2.179688 4.734375 -1.890625 C 4.441406 -1.609375 4.085938 -1.382812 3.671875 -1.21875 C 3.265625 -1.050781 2.835938 -0.921875 2.390625 -0.828125 C 1.941406 -0.742188 1.515625 -0.679688 1.109375 -0.640625 C 0.710938 -0.609375 0.367188 -0.578125 0.078125 -0.546875 C 0.015625 -0.546875 -0.00390625 -0.570312 0.015625 -0.625 L 0.640625 -1.796875 C 1.773438 -1.921875 2.703125 -2.097656 3.421875 -2.328125 C 4.140625 -2.554688 4.738281 -2.820312 5.21875 -3.125 Z M 5.21875 -3.125 "/></g></g></g><g fill="#0b1320" fill-opacity="1"><g transform="translate(40.371787, 18.942553)"><g><path d="M 5.875 -7.28125 L 8.9375 -4.90625 C 9.019531 -4.84375 9.066406 -4.753906 9.078125 -4.640625 C 9.097656 -4.535156 9.070312 -4.441406 9 -4.359375 L 5.640625 0 L -2.515625 0 L -2.4375 -0.28125 L -0.234375 -3.125 L 0 -3.234375 L 3.515625 -3.234375 L 3.03125 -3.625 C 2.945312 -3.6875 2.894531 -3.769531 2.875 -3.875 C 2.863281 -3.976562 2.890625 -4.070312 2.953125 -4.15625 L 5.34375 -7.21875 C 5.40625 -7.300781 5.488281 -7.347656 5.59375 -7.359375 C 5.695312 -7.378906 5.789062 -7.351562 5.875 -7.28125 Z M 5.875 -7.28125 "/></g></g></g></g></g><g transform="matrix(1, 0, 0, 1, 7, 58)"><g clip-path="url(#628cb200c8)"><g fill="#0b1320" fill-opacity="1"><g transform="translate(0.796847, 5.685887)"><g><path d="M 0.359375 0 L 0.359375 -3.4375 L 1.453125 -3.4375 C 1.796875 -3.4375 2.066406 -3.359375 2.265625 -3.203125 C 2.460938 -3.046875 2.5625 -2.828125 2.5625 -2.546875 C 2.5625 -2.335938 2.5 -2.164062 2.375 -2.03125 C 2.257812 -1.90625 2.101562 -1.835938 1.90625 -1.828125 L 1.90625 -1.78125 C 2.125 -1.757812 2.296875 -1.675781 2.421875 -1.53125 C 2.554688 -1.394531 2.625 -1.210938 2.625 -0.984375 C 2.625 -0.835938 2.597656 -0.703125 2.546875 -0.578125 C 2.492188 -0.453125 2.414062 -0.347656 2.3125 -0.265625 C 2.21875 -0.179688 2.097656 -0.113281 1.953125 -0.0625 C 1.816406 -0.0195312 1.660156 0 1.484375 0 Z M 0.9375 -1.53125 L 0.9375 -0.5 L 1.453125 -0.5 C 1.628906 -0.5 1.765625 -0.539062 1.859375 -0.625 C 1.960938 -0.71875 2.015625 -0.847656 2.015625 -1.015625 C 2.015625 -1.171875 1.960938 -1.296875 1.859375 -1.390625 C 1.765625 -1.484375 1.628906 -1.53125 1.453125 -1.53125 Z M 0.9375 -2.9375 L 0.9375 -2.015625 L 1.4375 -2.015625 C 1.59375 -2.015625 1.71875 -2.054688 1.8125 -2.140625 C 1.90625 -2.222656 1.953125 -2.335938 1.953125 -2.484375 C 1.953125 -2.628906 1.90625 -2.738281 1.8125 -2.8125 C 1.71875 -2.894531 1.59375 -2.9375 1.4375 -2.9375 Z M 0.9375 -2.9375 "/></g></g></g><g fill="#0b1320" fill-opacity="1"><g transform="translate(3.661735, 5.685887)"><g><path d="M 1.453125 0.78125 L 0.828125 0.78125 L 1.1875 -0.140625 L 0.171875 -2.625 L 0.828125 -2.625 L 1.34375 -1.234375 C 1.363281 -1.171875 1.378906 -1.109375 1.390625 -1.046875 C 1.410156 -0.984375 1.421875 -0.925781 1.421875 -0.875 C 1.429688 -0.8125 1.441406 -0.75 1.453125 -0.6875 L 1.484375 -0.6875 C 1.484375 -0.75 1.488281 -0.8125 1.5 -0.875 C 1.507812 -0.925781 1.519531 -0.984375 1.53125 -1.046875 C 1.539062 -1.109375 1.554688 -1.171875 1.578125 -1.234375 L 2.0625 -2.625 L 2.703125 -2.625 Z M 1.453125 0.78125 "/></g></g></g><g fill="#0b1320" fill-opacity="1"><g transform="translate(6.526624, 5.685887)"><g/></g></g><g fill="#0b1320" fill-opacity="1"><g transform="translate(9.391512, 5.685887)"><g><path d="M 1.546875 -3.4375 C 1.710938 -3.4375 1.867188 -3.410156 2.015625 -3.359375 C 2.160156 -3.316406 2.28125 -3.25 2.375 -3.15625 C 2.476562 -3.0625 2.554688 -2.953125 2.609375 -2.828125 C 2.660156 -2.703125 2.6875 -2.554688 2.6875 -2.390625 C 2.6875 -2.234375 2.660156 -2.09375 2.609375 -1.96875 C 2.554688 -1.84375 2.476562 -1.734375 2.375 -1.640625 C 2.269531 -1.546875 2.144531 -1.472656 2 -1.421875 C 1.863281 -1.378906 1.710938 -1.359375 1.546875 -1.359375 L 0.953125 -1.359375 L 0.953125 0 L 0.359375 0 L 0.359375 -3.4375 Z M 0.953125 -2.9375 L 0.953125 -1.859375 L 1.546875 -1.859375 C 1.710938 -1.859375 1.84375 -1.90625 1.9375 -2 C 2.03125 -2.101562 2.078125 -2.234375 2.078125 -2.390625 C 2.078125 -2.554688 2.03125 -2.6875 1.9375 -2.78125 C 1.84375 -2.882812 1.710938 -2.9375 1.546875 -2.9375 Z M 0.953125 -2.9375 "/></g></g></g><g fill="#0b1320" fill-opacity="1"><g transform="translate(12.2564, 5.685887)"><g><path d="M 0.34375 -3.484375 L 0.9375 -3.484375 L 0.9375 -2.625 C 0.9375 -2.582031 0.9375 -2.535156 0.9375 -2.484375 C 0.9375 -2.429688 0.929688 -2.378906 0.921875 -2.328125 C 0.921875 -2.285156 0.914062 -2.25 0.90625 -2.21875 C 0.90625 -2.1875 0.90625 -2.171875 0.90625 -2.171875 L 0.953125 -2.171875 C 0.984375 -2.335938 1.054688 -2.460938 1.171875 -2.546875 C 1.296875 -2.628906 1.457031 -2.671875 1.65625 -2.671875 C 1.914062 -2.671875 2.125 -2.582031 2.28125 -2.40625 C 2.4375 -2.238281 2.515625 -2.007812 2.515625 -1.71875 L 2.515625 0 L 1.921875 0 L 1.921875 -1.65625 C 1.921875 -1.8125 1.875 -1.929688 1.78125 -2.015625 C 1.695312 -2.109375 1.582031 -2.15625 1.4375 -2.15625 C 1.28125 -2.15625 1.15625 -2.109375 1.0625 -2.015625 C 0.976562 -1.921875 0.9375 -1.796875 0.9375 -1.640625 L 0.9375 0 L 0.34375 0 Z M 0.34375 -3.484375 "/></g></g></g><g fill="#0b1320" fill-opacity="1"><g transform="translate(15.121289, 5.685887)"><g><path d="M 0.25 -0.734375 C 0.25 -0.867188 0.269531 -0.988281 0.3125 -1.09375 C 0.363281 -1.195312 0.429688 -1.285156 0.515625 -1.359375 C 0.609375 -1.429688 0.71875 -1.484375 0.84375 -1.515625 C 0.96875 -1.554688 1.109375 -1.578125 1.265625 -1.578125 L 1.921875 -1.578125 L 1.921875 -1.8125 C 1.921875 -1.925781 1.875 -2.019531 1.78125 -2.09375 C 1.695312 -2.164062 1.578125 -2.203125 1.421875 -2.203125 C 1.285156 -2.203125 1.171875 -2.175781 1.078125 -2.125 C 0.992188 -2.082031 0.9375 -2.019531 0.90625 -1.9375 L 0.328125 -1.9375 C 0.367188 -2.164062 0.484375 -2.34375 0.671875 -2.46875 C 0.867188 -2.601562 1.117188 -2.671875 1.421875 -2.671875 C 1.585938 -2.671875 1.738281 -2.648438 1.875 -2.609375 C 2.007812 -2.578125 2.125 -2.519531 2.21875 -2.4375 C 2.3125 -2.363281 2.382812 -2.273438 2.4375 -2.171875 C 2.5 -2.066406 2.53125 -1.945312 2.53125 -1.8125 L 2.53125 0 L 1.953125 0 L 1.953125 -0.515625 L 1.921875 -0.515625 C 1.890625 -0.347656 1.796875 -0.210938 1.640625 -0.109375 C 1.492188 -0.00390625 1.3125 0.046875 1.09375 0.046875 C 0.832031 0.046875 0.625 -0.0195312 0.46875 -0.15625 C 0.320312 -0.300781 0.25 -0.492188 0.25 -0.734375 Z M 1.3125 -0.421875 C 1.488281 -0.421875 1.632812 -0.460938 1.75 -0.546875 C 1.863281 -0.640625 1.921875 -0.753906 1.921875 -0.890625 L 1.921875 -1.1875 L 1.265625 -1.1875 C 1.140625 -1.1875 1.035156 -1.148438 0.953125 -1.078125 C 0.878906 -1.015625 0.84375 -0.925781 0.84375 -0.8125 C 0.84375 -0.6875 0.878906 -0.585938 0.953125 -0.515625 C 1.035156 -0.453125 1.15625 -0.421875 1.3125 -0.421875 Z M 1.3125 -0.421875 "/></g></g></g><g fill="#0b1320" fill-opacity="1"><g transform="translate(17.986177, 5.685887)"><g><path d="M 0.453125 -2.625 L 1.015625 -2.625 L 1.015625 -2.171875 L 1.0625 -2.171875 C 1.09375 -2.335938 1.171875 -2.460938 1.296875 -2.546875 C 1.421875 -2.628906 1.582031 -2.671875 1.78125 -2.671875 C 2.070312 -2.671875 2.296875 -2.582031 2.453125 -2.40625 C 2.609375 -2.238281 2.6875 -2 2.6875 -1.6875 L 2.6875 -1.5 L 2.0625 -1.5 L 2.0625 -1.640625 C 2.0625 -1.804688 2.015625 -1.9375 1.921875 -2.03125 C 1.828125 -2.125 1.703125 -2.171875 1.546875 -2.171875 C 1.390625 -2.171875 1.265625 -2.125 1.171875 -2.03125 C 1.085938 -1.9375 1.046875 -1.804688 1.046875 -1.640625 L 1.046875 0 L 0.453125 0 Z M 0.453125 -2.625 "/></g></g></g><g fill="#0b1320" fill-opacity="1"><g transform="translate(20.851065, 5.685887)"><g><path d="M 0.234375 -2.625 L 0.6875 -2.625 L 0.6875 -2.25 L 0.734375 -2.25 C 0.742188 -2.382812 0.785156 -2.488281 0.859375 -2.5625 C 0.941406 -2.632812 1.046875 -2.671875 1.171875 -2.671875 C 1.296875 -2.671875 1.398438 -2.632812 1.484375 -2.5625 C 1.566406 -2.488281 1.625 -2.382812 1.65625 -2.25 L 1.6875 -2.25 C 1.695312 -2.382812 1.738281 -2.488281 1.8125 -2.5625 C 1.894531 -2.632812 2 -2.671875 2.125 -2.671875 C 2.28125 -2.671875 2.40625 -2.609375 2.5 -2.484375 C 2.59375 -2.367188 2.640625 -2.210938 2.640625 -2.015625 L 2.640625 0 L 2.140625 0 L 2.140625 -1.953125 C 2.140625 -2.148438 2.0625 -2.25 1.90625 -2.25 C 1.757812 -2.25 1.6875 -2.148438 1.6875 -1.953125 L 1.6875 0 L 1.1875 0 L 1.1875 -1.953125 C 1.1875 -2.117188 1.132812 -2.21875 1.03125 -2.25 C 1 -2.25 0.972656 -2.25 0.953125 -2.25 C 0.941406 -2.25 0.921875 -2.25 0.890625 -2.25 C 0.785156 -2.21875 0.734375 -2.117188 0.734375 -1.953125 L 0.734375 0 L 0.234375 0 Z M 0.234375 -2.625 "/></g></g></g><g fill="#0b1320" fill-opacity="1"><g transform="translate(23.715954, 5.685887)"><g><path d="M 0.25 -0.734375 C 0.25 -0.867188 0.269531 -0.988281 0.3125 -1.09375 C 0.363281 -1.195312 0.429688 -1.285156 0.515625 -1.359375 C 0.609375 -1.429688 0.71875 -1.484375 0.84375 -1.515625 C 0.96875 -1.554688 1.109375 -1.578125 1.265625 -1.578125 L 1.921875 -1.578125 L 1.921875 -1.8125 C 1.921875 -1.925781 1.875 -2.019531 1.78125 -2.09375 C 1.695312 -2.164062 1.578125 -2.203125 1.421875 -2.203125 C 1.285156 -2.203125 1.171875 -2.175781 1.078125 -2.125 C 0.992188 -2.082031 0.9375 -2.019531 0.90625 -1.9375 L 0.328125 -1.9375 C 0.367188 -2.164062 0.484375 -2.34375 0.671875 -2.46875 C 0.867188 -2.601562 1.117188 -2.671875 1.421875 -2.671875 C 1.585938 -2.671875 1.738281 -2.648438 1.875 -2.609375 C 2.007812 -2.578125 2.125 -2.519531 2.21875 -2.4375 C 2.3125 -2.363281 2.382812 -2.273438 2.4375 -2.171875 C 2.5 -2.066406 2.53125 -1.945312 2.53125 -1.8125 L 2.53125 0 L 1.953125 0 L 1.953125 -0.515625 L 1.921875 -0.515625 C 1.890625 -0.347656 1.796875 -0.210938 1.640625 -0.109375 C 1.492188 -0.00390625 1.3125 0.046875 1.09375 0.046875 C 0.832031 0.046875 0.625 -0.0195312 0.46875 -0.15625 C 0.320312 -0.300781 0.25 -0.492188 0.25 -0.734375 Z M 1.3125 -0.421875 C 1.488281 -0.421875 1.632812 -0.460938 1.75 -0.546875 C 1.863281 -0.640625 1.921875 -0.753906 1.921875 -0.890625 L 1.921875 -1.1875 L 1.265625 -1.1875 C 1.140625 -1.1875 1.035156 -1.148438 0.953125 -1.078125 C 0.878906 -1.015625 0.84375 -0.925781 0.84375 -0.8125 C 0.84375 -0.6875 0.878906 -0.585938 0.953125 -0.515625 C 1.035156 -0.453125 1.15625 -0.421875 1.3125 -0.421875 Z M 1.3125 -0.421875 "/></g></g></g><g fill="#0b1320" fill-opacity="1"><g transform="translate(26.580842, 5.685887)"><g><path d="M 0.453125 -2.625 L 1.015625 -2.625 L 1.015625 -2.171875 L 1.0625 -2.171875 C 1.09375 -2.335938 1.171875 -2.460938 1.296875 -2.546875 C 1.421875 -2.628906 1.582031 -2.671875 1.78125 -2.671875 C 2.070312 -2.671875 2.296875 -2.582031 2.453125 -2.40625 C 2.609375 -2.238281 2.6875 -2 2.6875 -1.6875 L 2.6875 -1.5 L 2.0625 -1.5 L 2.0625 -1.640625 C 2.0625 -1.804688 2.015625 -1.9375 1.921875 -2.03125 C 1.828125 -2.125 1.703125 -2.171875 1.546875 -2.171875 C 1.390625 -2.171875 1.265625 -2.125 1.171875 -2.03125 C 1.085938 -1.9375 1.046875 -1.804688 1.046875 -1.640625 L 1.046875 0 L 0.453125 0 Z M 0.453125 -2.625 "/></g></g></g><g fill="#0b1320" fill-opacity="1"><g transform="translate(29.44573, 5.685887)"><g><path d="M 0.25 -0.734375 C 0.25 -0.867188 0.269531 -0.988281 0.3125 -1.09375 C 0.363281 -1.195312 0.429688 -1.285156 0.515625 -1.359375 C 0.609375 -1.429688 0.71875 -1.484375 0.84375 -1.515625 C 0.96875 -1.554688 1.109375 -1.578125 1.265625 -1.578125 L 1.921875 -1.578125 L 1.921875 -1.8125 C 1.921875 -1.925781 1.875 -2.019531 1.78125 -2.09375 C 1.695312 -2.164062 1.578125 -2.203125 1.421875 -2.203125 C 1.285156 -2.203125 1.171875 -2.175781 1.078125 -2.125 C 0.992188 -2.082031 0.9375 -2.019531 0.90625 -1.9375 L 0.328125 -1.9375 C 0.367188 -2.164062 0.484375 -2.34375 0.671875 -2.46875 C 0.867188 -2.601562 1.117188 -2.671875 1.421875 -2.671875 C 1.585938 -2.671875 1.738281 -2.648438 1.875 -2.609375 C 2.007812 -2.578125 2.125 -2.519531 2.21875 -2.4375 C 2.3125 -2.363281 2.382812 -2.273438 2.4375 -2.171875 C 2.5 -2.066406 2.53125 -1.945312 2.53125 -1.8125 L 2.53125 0 L 1.953125 0 L 1.953125 -0.515625 L 1.921875 -0.515625 C 1.890625 -0.347656 1.796875 -0.210938 1.640625 -0.109375 C 1.492188 -0.00390625 1.3125 0.046875 1.09375 0.046875 C 0.832031 0.046875 0.625 -0.0195312 0.46875 -0.15625 C 0.320312 -0.300781 0.25 -0.492188 0.25 -0.734375 Z M 1.3125 -0.421875 C 1.488281 -0.421875 1.632812 -0.460938 1.75 -0.546875 C 1.863281 -0.640625 1.921875 -0.753906 1.921875 -0.890625 L 1.921875 -1.1875 L 1.265625 -1.1875 C 1.140625 -1.1875 1.035156 -1.148438 0.953125 -1.078125 C 0.878906 -1.015625 0.84375 -0.925781 0.84375 -0.8125 C 0.84375 -0.6875 0.878906 -0.585938 0.953125 -0.515625 C 1.035156 -0.453125 1.15625 -0.421875 1.3125 -0.421875 Z M 1.3125 -0.421875 "/></g></g></g><g fill="#0b1320" fill-opacity="1"><g transform="translate(32.310619, 5.685887)"><g><path d="M 1.46875 0.046875 C 1.289062 0.046875 1.128906 0.0234375 0.984375 -0.015625 C 0.847656 -0.0664062 0.726562 -0.132812 0.625 -0.21875 C 0.53125 -0.3125 0.457031 -0.421875 0.40625 -0.546875 C 0.351562 -0.671875 0.328125 -0.8125 0.328125 -0.96875 L 0.328125 -1.65625 C 0.328125 -1.8125 0.351562 -1.953125 0.40625 -2.078125 C 0.457031 -2.203125 0.53125 -2.304688 0.625 -2.390625 C 0.726562 -2.484375 0.847656 -2.550781 0.984375 -2.59375 C 1.128906 -2.644531 1.289062 -2.671875 1.46875 -2.671875 C 1.613281 -2.671875 1.75 -2.648438 1.875 -2.609375 C 2.007812 -2.566406 2.125 -2.503906 2.21875 -2.421875 C 2.320312 -2.335938 2.40625 -2.238281 2.46875 -2.125 C 2.539062 -2.019531 2.585938 -1.894531 2.609375 -1.75 L 2.015625 -1.75 C 1.992188 -1.875 1.929688 -1.972656 1.828125 -2.046875 C 1.734375 -2.117188 1.613281 -2.15625 1.46875 -2.15625 C 1.289062 -2.15625 1.15625 -2.109375 1.0625 -2.015625 C 0.96875 -1.929688 0.921875 -1.8125 0.921875 -1.65625 L 0.921875 -0.96875 C 0.921875 -0.8125 0.96875 -0.6875 1.0625 -0.59375 C 1.15625 -0.507812 1.289062 -0.46875 1.46875 -0.46875 C 1.601562 -0.46875 1.722656 -0.503906 1.828125 -0.578125 C 1.929688 -0.660156 1.992188 -0.757812 2.015625 -0.875 L 2.609375 -0.875 C 2.585938 -0.738281 2.539062 -0.613281 2.46875 -0.5 C 2.40625 -0.382812 2.320312 -0.285156 2.21875 -0.203125 C 2.125 -0.117188 2.007812 -0.0546875 1.875 -0.015625 C 1.75 0.0234375 1.613281 0.046875 1.46875 0.046875 Z M 1.46875 0.046875 "/></g></g></g><g fill="#0b1320" fill-opacity="1"><g transform="translate(35.175507, 5.685887)"><g><path d="M 0.390625 -0.546875 L 1.34375 -0.546875 L 1.34375 -2.09375 L 0.515625 -2.09375 L 0.515625 -2.625 L 1.90625 -2.625 L 1.90625 -0.546875 L 2.671875 -0.546875 L 2.671875 0 L 0.390625 0 Z M 1.171875 -3.34375 C 1.171875 -3.4375 1.203125 -3.507812 1.265625 -3.5625 C 1.328125 -3.625 1.40625 -3.65625 1.5 -3.65625 L 1.625 -3.65625 C 1.726562 -3.65625 1.8125 -3.625 1.875 -3.5625 C 1.9375 -3.507812 1.96875 -3.4375 1.96875 -3.34375 C 1.96875 -3.25 1.9375 -3.171875 1.875 -3.109375 C 1.8125 -3.054688 1.726562 -3.03125 1.625 -3.03125 L 1.5 -3.03125 C 1.40625 -3.03125 1.328125 -3.054688 1.265625 -3.109375 C 1.203125 -3.171875 1.171875 -3.25 1.171875 -3.34375 Z M 1.171875 -3.34375 "/></g></g></g><g fill="#0b1320" fill-opacity="1"><g transform="translate(38.040395, 5.685887)"><g><path d="M 1.328125 0.046875 C 1.023438 0.046875 0.78125 -0.015625 0.59375 -0.140625 C 0.414062 -0.265625 0.3125 -0.441406 0.28125 -0.671875 L 0.890625 -0.671875 C 0.910156 -0.585938 0.957031 -0.519531 1.03125 -0.46875 C 1.113281 -0.425781 1.210938 -0.40625 1.328125 -0.40625 L 1.53125 -0.40625 C 1.675781 -0.40625 1.789062 -0.4375 1.875 -0.5 C 1.957031 -0.5625 2 -0.640625 2 -0.734375 C 2 -0.910156 1.863281 -1.019531 1.59375 -1.0625 L 1.21875 -1.109375 C 0.914062 -1.140625 0.691406 -1.21875 0.546875 -1.34375 C 0.398438 -1.476562 0.328125 -1.664062 0.328125 -1.90625 C 0.328125 -2.15625 0.414062 -2.34375 0.59375 -2.46875 C 0.769531 -2.601562 1.019531 -2.671875 1.34375 -2.671875 L 1.546875 -2.671875 C 1.828125 -2.671875 2.054688 -2.609375 2.234375 -2.484375 C 2.410156 -2.367188 2.515625 -2.203125 2.546875 -1.984375 L 1.9375 -1.984375 C 1.925781 -2.054688 1.882812 -2.113281 1.8125 -2.15625 C 1.738281 -2.195312 1.648438 -2.21875 1.546875 -2.21875 L 1.34375 -2.21875 C 1.0625 -2.21875 0.921875 -2.117188 0.921875 -1.921875 C 0.921875 -1.753906 1.039062 -1.65625 1.28125 -1.625 L 1.65625 -1.578125 C 1.96875 -1.535156 2.195312 -1.445312 2.34375 -1.3125 C 2.5 -1.1875 2.578125 -1.003906 2.578125 -0.765625 C 2.578125 -0.503906 2.484375 -0.300781 2.296875 -0.15625 C 2.117188 -0.0195312 1.863281 0.046875 1.53125 0.046875 Z M 1.328125 0.046875 "/></g></g></g><g fill="#0b1320" fill-opacity="1"><g transform="translate(40.905284, 5.685887)"><g><path d="M 0.21875 -2.625 L 0.9375 -2.625 L 0.9375 -3.4375 L 1.546875 -3.4375 L 1.546875 -2.625 L 2.53125 -2.625 L 2.53125 -2.09375 L 1.546875 -2.09375 L 1.546875 -0.8125 C 1.546875 -0.726562 1.566406 -0.660156 1.609375 -0.609375 C 1.660156 -0.566406 1.734375 -0.546875 1.828125 -0.546875 L 2.484375 -0.546875 L 2.484375 0 L 1.78125 0 C 1.519531 0 1.3125 -0.0703125 1.15625 -0.21875 C 1.007812 -0.363281 0.9375 -0.5625 0.9375 -0.8125 L 0.9375 -2.09375 L 0.21875 -2.09375 Z M 0.21875 -2.625 "/></g></g></g></g></g></svg>