<svg xmlns="http://www.w3.org/2000/svg" xmlns:xlink="http://www.w3.org/1999/xlink" width="96" zoomAndPan="magnify" viewBox="0 0 72 72" height="96" preserveAspectRatio="xMidYMid meet" version="1.0"><defs><clipPath id="54d548a854"><path d="M 1.664062 0 L 70.664062 0 L 70.664062 44 L 1.664062 44 Z M 1.664062 0 " clip-rule="nonzero"/></clipPath><clipPath id="5a20936585"><path d="M 62.925781 1.351562 L 66.675781 1.351562 L 66.675781 5.101562 L 62.925781 5.101562 Z M 62.925781 1.351562 " clip-rule="nonzero"/></clipPath><clipPath id="d3396bbb53"><path d="M 64.800781 1.351562 C 65.835938 1.351562 66.675781 2.191406 66.675781 3.226562 C 66.675781 4.261719 65.835938 5.101562 64.800781 5.101562 C 63.765625 5.101562 62.925781 4.261719 62.925781 3.226562 C 62.925781 2.191406 63.765625 1.351562 64.800781 1.351562 Z M 64.800781 1.351562 " clip-rule="nonzero"/></clipPath><clipPath id="6b97f6e651"><path d="M 0.925781 0.351562 L 4.675781 0.351562 L 4.675781 4.101562 L 0.925781 4.101562 Z M 0.925781 0.351562 " clip-rule="nonzero"/></clipPath><clipPath id="157b36e8df"><path d="M 2.800781 0.351562 C 3.835938 0.351562 4.675781 1.191406 4.675781 2.226562 C 4.675781 3.261719 3.835938 4.101562 2.800781 4.101562 C 1.765625 4.101562 0.925781 3.261719 0.925781 2.226562 C 0.925781 1.191406 1.765625 0.351562 2.800781 0.351562 Z M 2.800781 0.351562 " clip-rule="nonzero"/></clipPath><clipPath id="033f9b672f"><rect x="0" width="5" y="0" height="5"/></clipPath></defs><g clip-path="url(#54d548a854)"><path fill="#ffffff" d="M 70.289062 0.636719 C 70.144531 0.195312 69.6875 -0.0664062 69.234375 0.03125 C 69.066406 0.0703125 52.328125 3.746094 35.800781 7.457031 C 26.097656 9.636719 18.363281 11.398438 12.8125 12.695312 C 9.515625 13.46875 6.964844 14.082031 5.226562 14.523438 C 4.285156 14.761719 3.558594 14.957031 3.074219 15.097656 C 2.316406 15.316406 1.664062 15.507812 1.671875 16.25 C 1.671875 16.539062 1.8125 16.8125 2.050781 16.980469 C 5.890625 19.730469 9.859375 22.570312 14.105469 24.894531 C 14.113281 24.96875 14.132812 25.042969 14.160156 25.117188 L 20.949219 42.734375 C 21.046875 42.988281 21.253906 43.1875 21.515625 43.269531 C 21.605469 43.300781 21.699219 43.3125 21.796875 43.3125 C 21.96875 43.3125 22.140625 43.265625 22.289062 43.167969 L 33.089844 36.1875 C 33.171875 36.132812 33.238281 36.070312 33.296875 36 L 41.710938 42.550781 C 41.871094 42.675781 42.066406 42.742188 42.265625 42.742188 C 42.316406 42.742188 42.363281 42.738281 42.410156 42.730469 C 42.660156 42.691406 42.878906 42.550781 43.019531 42.339844 L 70.144531 1.6875 C 70.25 1.53125 70.296875 1.351562 70.296875 1.171875 C 70.34375 1 70.347656 0.816406 70.289062 0.636719 Z M 60.523438 3.804688 L 15.304688 23.488281 C 11.566406 21.46875 8.011719 19.011719 4.570312 16.558594 C 11.359375 14.769531 38.308594 8.714844 60.523438 3.804688 Z M 16.097656 25.113281 L 60.375 5.84375 L 25.230469 28.1875 C 24.980469 28.34375 24.824219 28.613281 24.8125 28.90625 C 24.8125 28.917969 24.8125 28.933594 24.8125 28.945312 C 24.800781 28.976562 24.789062 29.003906 24.78125 29.039062 L 21.808594 39.925781 Z M 23.621094 40.148438 L 26.253906 30.515625 L 31.820312 34.851562 Z M 42.050781 40.527344 L 27.285156 29.023438 L 66.257812 4.25 Z M 42.050781 40.527344 " fill-opacity="1" fill-rule="nonzero"/></g><path fill="#ffffff" d="M 66.40625 70.332031 C 65.460938 69.695312 64.390625 69.171875 63.214844 68.773438 C 62.742188 68.613281 62.230469 68.867188 62.066406 69.34375 C 61.910156 69.816406 62.160156 70.328125 62.636719 70.488281 C 63.65625 70.835938 64.582031 71.289062 65.394531 71.835938 C 65.546875 71.9375 65.722656 71.988281 65.898438 71.988281 C 66.191406 71.988281 66.476562 71.847656 66.648438 71.589844 C 66.929688 71.175781 66.820312 70.613281 66.40625 70.332031 Z M 66.40625 70.332031 " fill-opacity="1" fill-rule="nonzero"/><path fill="#ffffff" d="M 27.816406 66.875 C 28.226562 66.761719 28.640625 66.636719 29.046875 66.5 C 29.519531 66.339844 29.777344 65.828125 29.621094 65.355469 C 29.460938 64.878906 28.949219 64.621094 28.472656 64.78125 C 28.023438 64.933594 27.566406 65.070312 27.105469 65.195312 C 27.066406 65.007812 27.042969 64.820312 27.027344 64.628906 C 26.996094 64.128906 26.5625 63.753906 26.066406 63.785156 C 25.566406 63.820312 25.191406 64.253906 25.222656 64.75 C 25.242188 65.039062 25.28125 65.324219 25.339844 65.605469 C 24.875 65.71875 24.574219 66.179688 24.667969 66.65625 C 24.761719 67.148438 25.238281 67.46875 25.726562 67.375 C 25.808594 67.355469 25.890625 67.339844 25.972656 67.324219 C 26.152344 67.652344 26.363281 67.976562 26.605469 68.289062 C 26.78125 68.519531 27.050781 68.640625 27.320312 68.640625 C 27.511719 68.640625 27.707031 68.578125 27.871094 68.449219 C 28.269531 68.144531 28.339844 67.578125 28.035156 67.179688 C 27.957031 67.082031 27.882812 66.980469 27.816406 66.875 Z M 27.816406 66.875 " fill-opacity="1" fill-rule="nonzero"/><path fill="#ffffff" d="M 22.207031 66.003906 C 21.238281 66.0625 20.253906 66.0625 19.300781 66.003906 C 19.207031 66 19.109375 65.992188 19.015625 65.984375 C 18.515625 65.949219 18.082031 66.320312 18.042969 66.820312 C 18.003906 67.316406 18.378906 67.753906 18.878906 67.789062 C 18.980469 67.796875 19.082031 67.804688 19.1875 67.8125 C 19.703125 67.84375 20.222656 67.859375 20.742188 67.859375 C 21.261719 67.859375 21.792969 67.84375 22.316406 67.8125 C 22.816406 67.78125 23.195312 67.351562 23.164062 66.851562 C 23.136719 66.351562 22.707031 65.972656 22.207031 66.003906 Z M 22.207031 66.003906 " fill-opacity="1" fill-rule="nonzero"/><path fill="#ffffff" d="M 39.757812 69.03125 L 36.445312 69.28125 C 35.949219 69.320312 35.574219 69.757812 35.613281 70.253906 C 35.648438 70.730469 36.042969 71.089844 36.515625 71.089844 C 36.535156 71.089844 36.5625 71.089844 36.582031 71.085938 L 39.894531 70.832031 C 40.390625 70.796875 40.765625 70.359375 40.726562 69.863281 C 40.691406 69.363281 40.253906 68.992188 39.757812 69.03125 Z M 39.757812 69.03125 " fill-opacity="1" fill-rule="nonzero"/><path fill="#ffffff" d="M 16.480469 42.957031 C 15.472656 43.703125 14.601562 44.386719 13.824219 45.046875 C 13.441406 45.367188 13.394531 45.9375 13.71875 46.324219 C 13.898438 46.535156 14.152344 46.644531 14.410156 46.644531 C 14.617188 46.644531 14.824219 46.574219 14.996094 46.429688 C 15.742188 45.796875 16.582031 45.136719 17.558594 44.414062 C 17.960938 44.113281 18.042969 43.546875 17.746094 43.148438 C 17.449219 42.742188 16.878906 42.660156 16.480469 42.957031 Z M 16.480469 42.957031 " fill-opacity="1" fill-rule="nonzero"/><path fill="#ffffff" d="M 15.910156 65.46875 C 14.847656 65.1875 13.886719 64.804688 13.046875 64.328125 C 12.613281 64.082031 12.0625 64.234375 11.8125 64.667969 C 11.566406 65.105469 11.71875 65.65625 12.15625 65.902344 C 13.125 66.453125 14.230469 66.898438 15.441406 67.21875 C 15.519531 67.242188 15.597656 67.25 15.675781 67.25 C 16.074219 67.25 16.441406 66.980469 16.550781 66.578125 C 16.679688 66.09375 16.390625 65.601562 15.910156 65.46875 Z M 15.910156 65.46875 " fill-opacity="1" fill-rule="nonzero"/><path fill="#ffffff" d="M 9.417969 51.347656 C 9.570312 51.445312 9.738281 51.492188 9.90625 51.492188 C 10.203125 51.492188 10.496094 51.347656 10.667969 51.078125 C 11.179688 50.289062 11.84375 49.460938 12.636719 48.625 C 12.980469 48.265625 12.96875 47.691406 12.605469 47.347656 C 12.242188 47 11.671875 47.015625 11.328125 47.378906 C 10.453125 48.296875 9.722656 49.210938 9.148438 50.097656 C 8.875 50.515625 8.996094 51.078125 9.417969 51.347656 Z M 9.417969 51.347656 " fill-opacity="1" fill-rule="nonzero"/><path fill="#ffffff" d="M 33.238281 69.375 C 32.058594 69.320312 31.089844 69.144531 30.273438 68.832031 C 29.804688 68.652344 29.28125 68.886719 29.101562 69.355469 C 28.925781 69.824219 29.160156 70.34375 29.625 70.523438 C 30.628906 70.90625 31.78125 71.121094 33.160156 71.183594 C 33.171875 71.183594 33.1875 71.183594 33.199219 71.183594 C 33.679688 71.183594 34.082031 70.804688 34.101562 70.320312 C 34.128906 69.820312 33.738281 69.394531 33.238281 69.375 Z M 33.238281 69.375 " fill-opacity="1" fill-rule="nonzero"/><path fill="#ffffff" d="M 10.453125 62.082031 C 9.96875 61.425781 9.589844 60.679688 9.332031 59.859375 C 9.179688 59.382812 8.671875 59.117188 8.195312 59.269531 C 7.71875 59.421875 7.453125 59.929688 7.605469 60.40625 C 7.925781 61.417969 8.394531 62.34375 9 63.160156 C 9.113281 63.3125 9.234375 63.464844 9.355469 63.609375 C 9.535156 63.824219 9.789062 63.933594 10.046875 63.933594 C 10.253906 63.933594 10.460938 63.863281 10.628906 63.71875 C 11.011719 63.398438 11.0625 62.828125 10.738281 62.445312 C 10.640625 62.328125 10.546875 62.207031 10.453125 62.082031 Z M 10.453125 62.082031 " fill-opacity="1" fill-rule="nonzero"/><path fill="#ffffff" d="M 59.800781 68.019531 C 58.867188 67.910156 57.886719 67.855469 56.796875 67.855469 C 56.652344 67.855469 56.511719 67.855469 56.367188 67.855469 C 55.867188 67.863281 55.46875 68.273438 55.476562 68.773438 C 55.480469 69.269531 55.886719 69.667969 56.378906 69.667969 C 56.386719 69.667969 56.386719 69.667969 56.390625 69.667969 C 56.527344 69.667969 56.664062 69.664062 56.796875 69.664062 C 57.816406 69.664062 58.726562 69.714844 59.585938 69.816406 C 59.621094 69.820312 59.660156 69.824219 59.695312 69.824219 C 60.148438 69.824219 60.539062 69.484375 60.59375 69.023438 C 60.648438 68.53125 60.296875 68.078125 59.800781 68.019531 Z M 59.800781 68.019531 " fill-opacity="1" fill-rule="nonzero"/><path fill="#ffffff" d="M 39.96875 57.480469 C 39.53125 57.242188 38.980469 57.398438 38.738281 57.839844 C 38.3125 58.617188 37.683594 59.269531 37.230469 59.683594 C 37.082031 59.820312 36.929688 59.953125 36.777344 60.085938 C 36.398438 60.410156 36.359375 60.984375 36.683594 61.359375 C 36.863281 61.566406 37.117188 61.675781 37.371094 61.675781 C 37.578125 61.675781 37.789062 61.601562 37.960938 61.453125 C 38.125 61.3125 38.285156 61.167969 38.449219 61.023438 C 39 60.519531 39.777344 59.707031 40.324219 58.710938 C 40.566406 58.269531 40.40625 57.722656 39.96875 57.480469 Z M 39.96875 57.480469 " fill-opacity="1" fill-rule="nonzero"/><path fill="#ffffff" d="M 40.503906 54.65625 C 39.824219 53.496094 38.445312 52.769531 36.898438 52.761719 C 36.898438 52.761719 36.898438 52.761719 36.894531 52.761719 C 36.398438 52.761719 35.992188 53.164062 35.992188 53.664062 C 35.988281 54.160156 36.390625 54.570312 36.890625 54.570312 C 37.785156 54.578125 38.589844 54.96875 38.941406 55.570312 C 39.109375 55.859375 39.414062 56.019531 39.722656 56.019531 C 39.878906 56.019531 40.035156 55.980469 40.179688 55.898438 C 40.613281 55.644531 40.757812 55.089844 40.503906 54.65625 Z M 40.503906 54.65625 " fill-opacity="1" fill-rule="nonzero"/><path fill="#ffffff" d="M 46.375 68.523438 L 43.066406 68.777344 C 42.566406 68.8125 42.191406 69.25 42.230469 69.746094 C 42.265625 70.222656 42.664062 70.582031 43.132812 70.582031 C 43.15625 70.582031 43.179688 70.582031 43.203125 70.582031 L 46.511719 70.328125 C 47.011719 70.289062 47.382812 69.851562 47.34375 69.355469 C 47.304688 68.859375 46.875 68.484375 46.375 68.523438 Z M 46.375 68.523438 " fill-opacity="1" fill-rule="nonzero"/><path fill="#ffffff" d="M 8.007812 57.765625 C 8.503906 57.765625 8.90625 57.371094 8.914062 56.875 C 8.929688 55.867188 9.089844 54.847656 9.390625 53.851562 C 9.53125 53.375 9.261719 52.867188 8.78125 52.726562 C 8.304688 52.582031 7.800781 52.851562 7.65625 53.332031 C 7.308594 54.488281 7.125 55.671875 7.105469 56.84375 C 7.097656 57.34375 7.496094 57.757812 7.992188 57.765625 C 8 57.765625 8.003906 57.765625 8.007812 57.765625 Z M 8.007812 57.765625 " fill-opacity="1" fill-rule="nonzero"/><path fill="#ffffff" d="M 35.480469 62.269531 C 35.207031 61.851562 34.644531 61.730469 34.226562 62.003906 C 33.339844 62.585938 32.398438 63.113281 31.4375 63.578125 C 30.988281 63.796875 30.800781 64.335938 31.015625 64.789062 C 31.171875 65.109375 31.496094 65.296875 31.832031 65.296875 C 31.964844 65.296875 32.097656 65.269531 32.226562 65.207031 C 33.257812 64.710938 34.261719 64.144531 35.214844 63.519531 C 35.632812 63.25 35.753906 62.6875 35.480469 62.269531 Z M 35.480469 62.269531 " fill-opacity="1" fill-rule="nonzero"/><path fill="#ffffff" d="M 30.945312 57.289062 C 31.144531 57.289062 31.34375 57.226562 31.507812 57.09375 C 32.359375 56.421875 33.265625 55.832031 34.140625 55.394531 C 34.585938 55.171875 34.765625 54.628906 34.542969 54.179688 C 34.320312 53.734375 33.773438 53.554688 33.328125 53.777344 C 32.347656 54.269531 31.328125 54.925781 30.382812 55.675781 C 29.992188 55.988281 29.925781 56.554688 30.238281 56.949219 C 30.417969 57.175781 30.679688 57.289062 30.945312 57.289062 Z M 30.945312 57.289062 " fill-opacity="1" fill-rule="nonzero"/><path fill="#ffffff" d="M 52.996094 68.019531 C 52.625 68.046875 52.257812 68.074219 51.886719 68.101562 L 49.683594 68.269531 C 49.183594 68.308594 48.8125 68.746094 48.847656 69.242188 C 48.886719 69.71875 49.28125 70.078125 49.75 70.078125 C 49.773438 70.078125 49.796875 70.078125 49.820312 70.074219 L 52.023438 69.90625 C 52.390625 69.878906 52.757812 69.851562 53.125 69.824219 C 53.625 69.785156 54 69.355469 53.964844 68.855469 C 53.929688 68.359375 53.496094 67.980469 52.996094 68.019531 Z M 52.996094 68.019531 " fill-opacity="1" fill-rule="nonzero"/><path fill="#ffffff" d="M 26.398438 62.296875 C 26.515625 62.347656 26.644531 62.375 26.765625 62.375 C 27.113281 62.375 27.445312 62.175781 27.59375 61.835938 C 27.972656 60.984375 28.53125 60.121094 29.25 59.269531 C 29.574219 58.890625 29.523438 58.316406 29.144531 57.996094 C 28.761719 57.671875 28.1875 57.71875 27.867188 58.101562 C 27.035156 59.085938 26.386719 60.09375 25.941406 61.101562 C 25.738281 61.558594 25.941406 62.09375 26.398438 62.296875 Z M 26.398438 62.296875 " fill-opacity="1" fill-rule="nonzero"/><g clip-path="url(#5a20936585)"><g clip-path="url(#d3396bbb53)"><g transform="matrix(1, 0, 0, 1, 62, 1)"><g clip-path="url(#033f9b672f)"><g clip-path="url(#6b97f6e651)"><g clip-path="url(#157b36e8df)"><path fill="#ffffff" d="M 0.925781 0.351562 L 4.675781 0.351562 L 4.675781 4.101562 L 0.925781 4.101562 Z M 0.925781 0.351562 " fill-opacity="1" fill-rule="nonzero"/></g></g></g></g></g></g></svg>