<svg xmlns="http://www.w3.org/2000/svg" xmlns:xlink="http://www.w3.org/1999/xlink" width="280" zoomAndPan="magnify" viewBox="0 0 210 119.999999" height="160" preserveAspectRatio="xMidYMid meet" version="1.0"><defs><g/><clipPath id="e7258a0ec6"><rect x="0" width="149" y="0" height="80"/></clipPath><clipPath id="e13ebccae2"><path d="M 26.378906 20.773438 L 58.628906 20.773438 L 58.628906 42 L 26.378906 42 Z M 26.378906 20.773438 " clip-rule="nonzero"/></clipPath><clipPath id="3243287642"><path d="M 54 53 L 58 53 L 58 54.523438 L 54 54.523438 Z M 54 53 " clip-rule="nonzero"/></clipPath><clipPath id="a177b16af9"><path d="M 42 53 L 45 53 L 45 54.523438 L 42 54.523438 Z M 42 53 " clip-rule="nonzero"/></clipPath><clipPath id="e8c8ad93b0"><path d="M 39 53 L 42 53 L 42 54.523438 L 39 54.523438 Z M 39 53 " clip-rule="nonzero"/></clipPath><clipPath id="87f2337a87"><path d="M 45 53 L 48 53 L 48 54.523438 L 45 54.523438 Z M 45 53 " clip-rule="nonzero"/></clipPath></defs><g transform="matrix(1, 0, 0, 1, 29, 20)"><g clip-path="url(#e7258a0ec6)"><g fill="#cabefe" fill-opacity="1"><g transform="translate(4.195569, 54.44666)"><g><path d="M 42.140625 -42.109375 L 42.171875 -19.46875 L 42.171875 -1.546875 C 42.171875 1.503906 41.34375 4.269531 39.6875 6.75 C 38.039062 9.226562 35.566406 11.265625 32.265625 12.859375 C 28.960938 14.460938 24.8125 15.5 19.8125 15.96875 C 17.894531 16.15625 16.023438 16.109375 14.203125 15.828125 C 12.390625 15.554688 10.726562 15.039062 9.21875 14.28125 C 7.71875 13.53125 6.453125 12.550781 5.421875 11.34375 C 4.390625 10.132812 3.6875 8.679688 3.3125 6.984375 C 2.9375 5.296875 3.007812 3.367188 3.53125 1.203125 C 3.925781 -0.484375 4.5 -2.226562 5.25 -4.03125 C 6 -5.84375 6.851562 -7.632812 7.8125 -9.40625 C 8.769531 -11.1875 9.757812 -12.878906 10.78125 -14.484375 C 11.8125 -16.097656 12.78125 -17.554688 13.6875 -18.859375 C 13.769531 -18.984375 13.910156 -18.992188 14.109375 -18.890625 C 14.316406 -18.785156 14.53125 -18.632812 14.75 -18.4375 C 14.96875 -18.238281 15.140625 -18.035156 15.265625 -17.828125 C 15.390625 -17.617188 15.410156 -17.457031 15.328125 -17.34375 C 14.523438 -16.207031 13.742188 -14.984375 12.984375 -13.671875 C 12.234375 -12.359375 11.570312 -11.023438 11 -9.671875 C 10.4375 -8.316406 10.03125 -6.984375 9.78125 -5.671875 C 9.53125 -4.367188 9.507812 -3.128906 9.71875 -1.953125 C 9.925781 -0.773438 10.429688 0.273438 11.234375 1.203125 C 12.078125 2.210938 13.1875 3.007812 14.5625 3.59375 C 15.9375 4.1875 17.457031 4.597656 19.125 4.828125 C 20.800781 5.054688 22.535156 5.117188 24.328125 5.015625 C 26.128906 4.910156 27.90625 4.660156 29.65625 4.265625 C 31.414062 3.878906 33.035156 3.363281 34.515625 2.71875 L 34.515625 -34.234375 L 41.734375 -42.265625 C 41.816406 -42.347656 41.90625 -42.367188 42 -42.328125 C 42.09375 -42.285156 42.140625 -42.210938 42.140625 -42.109375 Z M 42.140625 -42.109375 "/></g></g></g><g fill="#cabefe" fill-opacity="1"><g transform="translate(49.454695, 54.44666)"><g><path d="M 3.53125 0 L 3.09375 0 L 3.09375 -38.171875 L 10.3125 -46.1875 C 10.394531 -46.269531 10.484375 -46.289062 10.578125 -46.25 C 10.671875 -46.207031 10.71875 -46.132812 10.71875 -46.03125 L 10.71875 -9.34375 Z M 3.53125 0 "/></g></g></g><g fill="#cabefe" fill-opacity="1"><g transform="translate(76.696881, 30.609644)"><g><path d="M 15.234375 -9.140625 L 15.546875 -8.734375 C 15.253906 -7.453125 14.675781 -6.390625 13.8125 -5.546875 C 12.957031 -4.710938 11.929688 -4.046875 10.734375 -3.546875 C 9.546875 -3.054688 8.300781 -2.6875 7 -2.4375 C 5.695312 -2.195312 4.453125 -2.019531 3.265625 -1.90625 C 2.078125 -1.789062 1.0625 -1.691406 0.21875 -1.609375 C 0.03125 -1.609375 -0.03125 -1.679688 0.03125 -1.828125 L 1.859375 -5.265625 C 5.203125 -5.617188 7.921875 -6.128906 10.015625 -6.796875 C 12.109375 -7.460938 13.847656 -8.242188 15.234375 -9.140625 Z M 15.234375 -9.140625 "/></g></g></g><g fill="#cabefe" fill-opacity="1"><g transform="translate(59.887171, 54.44666)"><g><path d="M 37.28125 -18.609375 L 38.296875 -18.328125 C 38.691406 -18.222656 38.835938 -17.953125 38.734375 -17.515625 C 38.191406 -15.660156 37.675781 -13.867188 37.1875 -12.140625 C 36.707031 -10.421875 36.144531 -8.820312 35.5 -7.34375 C 34.863281 -5.875 34.050781 -4.59375 33.0625 -3.5 C 32.070312 -2.40625 30.816406 -1.546875 29.296875 -0.921875 C 27.785156 -0.304688 25.894531 0 23.625 0 L 17.25 0 C 17.164062 0 17.097656 -0.0351562 17.046875 -0.109375 C 16.992188 -0.179688 17 -0.257812 17.0625 -0.34375 L 17.671875 -1.109375 C 16.847656 -0.765625 15.929688 -0.492188 14.921875 -0.296875 C 13.910156 -0.0976562 12.785156 0 11.546875 0 L 5.171875 0 C 5.085938 0 5.019531 -0.0351562 4.96875 -0.109375 C 4.914062 -0.179688 4.921875 -0.257812 4.984375 -0.34375 L 5.609375 -1.109375 C 4.773438 -0.765625 3.851562 -0.492188 2.84375 -0.296875 C 1.832031 -0.0976562 0.695312 0 -0.5625 0 L -7.34375 0 L -7.125 -0.828125 L -0.6875 -9.140625 L 0 -9.46875 L 6 -9.46875 C 6.957031 -9.46875 7.757812 -9.707031 8.40625 -10.1875 C 9.050781 -10.675781 9.597656 -11.332031 10.046875 -12.15625 C 10.492188 -12.988281 10.894531 -13.925781 11.25 -14.96875 C 11.613281 -16.007812 11.992188 -17.085938 12.390625 -18.203125 C 12.429688 -18.367188 12.523438 -18.488281 12.671875 -18.5625 C 12.828125 -18.632812 12.976562 -18.648438 13.125 -18.609375 L 14.15625 -18.328125 C 14.539062 -18.222656 14.679688 -17.953125 14.578125 -17.515625 C 14.191406 -16.097656 13.8125 -14.707031 13.4375 -13.34375 C 13.0625 -11.976562 12.660156 -10.6875 12.234375 -9.46875 L 18.109375 -9.46875 C 19.054688 -9.46875 19.847656 -9.707031 20.484375 -10.1875 C 21.128906 -10.675781 21.671875 -11.332031 22.109375 -12.15625 C 22.554688 -12.988281 22.960938 -13.929688 23.328125 -14.984375 C 23.691406 -16.035156 24.066406 -17.128906 24.453125 -18.265625 C 24.492188 -18.410156 24.59375 -18.515625 24.75 -18.578125 C 24.90625 -18.640625 25.054688 -18.648438 25.203125 -18.609375 L 26.21875 -18.328125 C 26.613281 -18.222656 26.757812 -17.953125 26.65625 -17.515625 C 26.257812 -16.097656 25.875 -14.707031 25.5 -13.34375 C 25.132812 -11.976562 24.734375 -10.6875 24.296875 -9.46875 L 30.1875 -9.46875 C 31.132812 -9.46875 31.925781 -9.707031 32.5625 -10.1875 C 33.207031 -10.675781 33.75 -11.332031 34.1875 -12.15625 C 34.632812 -12.988281 35.035156 -13.929688 35.390625 -14.984375 C 35.753906 -16.035156 36.132812 -17.128906 36.53125 -18.265625 C 36.570312 -18.410156 36.671875 -18.515625 36.828125 -18.578125 C 36.984375 -18.640625 37.132812 -18.648438 37.28125 -18.609375 Z M 37.28125 -18.609375 "/></g></g></g><g fill="#cabefe" fill-opacity="1"><g transform="translate(103.44363, 34.757912)"><g><path d="M 7 -10.921875 L 8.984375 -7.703125 C 9.140625 -7.441406 9.195312 -7.035156 9.15625 -6.484375 C 9.125 -5.941406 9 -5.367188 8.78125 -4.765625 C 8.5625 -4.171875 8.269531 -3.664062 7.90625 -3.25 C 7.550781 -2.832031 7.132812 -2.625 6.65625 -2.625 L 1.453125 -2.625 L 1.703125 -1.234375 C 1.722656 -1.046875 1.640625 -0.921875 1.453125 -0.859375 L 1.265625 -0.8125 C 1.179688 -0.789062 1.097656 -0.804688 1.015625 -0.859375 C 0.929688 -0.921875 0.878906 -0.992188 0.859375 -1.078125 L 0.46875 -3.1875 C 0.445312 -3.226562 0.4375 -3.265625 0.4375 -3.296875 C 0.4375 -3.328125 0.425781 -3.363281 0.40625 -3.40625 L 0.03125 -5.515625 C -0.03125 -5.835938 0.0390625 -6.09375 0.25 -6.28125 L 5.328125 -11.140625 C 5.597656 -11.410156 5.894531 -11.519531 6.21875 -11.46875 C 6.550781 -11.414062 6.8125 -11.234375 7 -10.921875 Z M 3.5 -8.046875 L 1.046875 -5.546875 L 7.21875 -5.546875 L 6.1875 -7.640625 C 5.925781 -8.179688 5.515625 -8.492188 4.953125 -8.578125 C 4.398438 -8.660156 3.914062 -8.484375 3.5 -8.046875 Z M 3.5 -8.046875 "/></g></g></g><g fill="#cabefe" fill-opacity="1"><g transform="translate(76.975294, 54.44666)"><g><path d="M 0.5 16.09375 C 0.289062 16.09375 0.144531 16.019531 0.0625 15.875 C -0.0195312 15.738281 -0.0078125 15.597656 0.09375 15.453125 L 6.25 6.15625 C 7.90625 6.03125 9.628906 5.910156 11.421875 5.796875 C 13.222656 5.691406 15.003906 5.539062 16.765625 5.34375 C 18.523438 5.144531 20.195312 4.878906 21.78125 4.546875 C 23.363281 4.222656 24.765625 3.800781 25.984375 3.28125 C 27.210938 2.757812 28.175781 2.113281 28.875 1.34375 C 29.582031 0.570312 29.9375 -0.359375 29.9375 -1.453125 L 29.9375 -6.3125 C 29.9375 -7.21875 30.234375 -7.96875 30.828125 -8.5625 C 31.429688 -9.164062 32.1875 -9.46875 33.09375 -9.46875 L 41.265625 -9.46875 L 34.09375 0 C 34.09375 2.4375 33.726562 4.523438 33 6.265625 C 32.28125 8.015625 31.269531 9.476562 29.96875 10.65625 C 28.664062 11.832031 27.140625 12.773438 25.390625 13.484375 C 23.648438 14.191406 21.769531 14.734375 19.75 15.109375 C 17.726562 15.484375 15.625 15.734375 13.4375 15.859375 C 11.25 15.992188 9.0625 16.066406 6.875 16.078125 C 4.6875 16.085938 2.5625 16.09375 0.5 16.09375 Z M 0.5 16.09375 "/></g></g></g><g fill="#cabefe" fill-opacity="1"><g transform="translate(123.782286, 67.913032)"><g><path d="M 15.234375 -9.140625 L 15.546875 -8.734375 C 15.253906 -7.453125 14.675781 -6.390625 13.8125 -5.546875 C 12.957031 -4.710938 11.929688 -4.046875 10.734375 -3.546875 C 9.546875 -3.054688 8.300781 -2.6875 7 -2.4375 C 5.695312 -2.195312 4.453125 -2.019531 3.265625 -1.90625 C 2.078125 -1.789062 1.0625 -1.691406 0.21875 -1.609375 C 0.03125 -1.609375 -0.03125 -1.679688 0.03125 -1.828125 L 1.859375 -5.265625 C 5.203125 -5.617188 7.921875 -6.128906 10.015625 -6.796875 C 12.109375 -7.460938 13.847656 -8.242188 15.234375 -9.140625 Z M 15.234375 -9.140625 "/></g></g></g><g fill="#cabefe" fill-opacity="1"><g transform="translate(117.962321, 54.44666)"><g><path d="M 17.1875 -21.296875 L 26.125 -14.328125 C 26.375 -14.148438 26.519531 -13.90625 26.5625 -13.59375 C 26.601562 -13.28125 26.519531 -13 26.3125 -12.75 L 16.46875 0 L -7.34375 0 L -7.125 -0.828125 L -0.6875 -9.140625 L 0 -9.46875 L 10.28125 -9.46875 L 8.859375 -10.59375 C 8.609375 -10.769531 8.460938 -11.015625 8.421875 -11.328125 C 8.378906 -11.640625 8.453125 -11.921875 8.640625 -12.171875 L 15.609375 -21.109375 C 15.785156 -21.359375 16.03125 -21.503906 16.34375 -21.546875 C 16.65625 -21.585938 16.9375 -21.503906 17.1875 -21.296875 Z M 17.1875 -21.296875 "/></g></g></g></g></g><g clip-path="url(#e13ebccae2)"><path fill="#3a2c8d" d="M 58.691406 21.074219 C 58.625 20.867188 58.410156 20.742188 58.195312 20.789062 C 58.117188 20.804688 50.234375 22.539062 42.453125 24.285156 C 37.882812 25.3125 34.238281 26.140625 31.628906 26.753906 C 30.074219 27.117188 28.871094 27.40625 28.054688 27.613281 C 27.609375 27.726562 27.269531 27.816406 27.039062 27.882812 C 26.683594 27.988281 26.378906 28.078125 26.378906 28.425781 C 26.382812 28.5625 26.449219 28.691406 26.558594 28.769531 C 28.367188 30.066406 30.238281 31.402344 32.234375 32.496094 C 32.242188 32.53125 32.25 32.566406 32.261719 32.601562 L 35.460938 40.898438 C 35.503906 41.019531 35.601562 41.109375 35.726562 41.148438 C 35.769531 41.164062 35.8125 41.171875 35.855469 41.171875 C 35.9375 41.171875 36.019531 41.148438 36.089844 41.101562 L 41.175781 37.8125 C 41.214844 37.789062 41.246094 37.757812 41.273438 37.726562 L 45.234375 40.8125 C 45.308594 40.871094 45.402344 40.902344 45.496094 40.902344 C 45.519531 40.902344 45.542969 40.898438 45.566406 40.894531 C 45.683594 40.875 45.785156 40.808594 45.851562 40.710938 L 58.625 21.570312 C 58.675781 21.496094 58.695312 21.410156 58.695312 21.324219 C 58.71875 21.246094 58.71875 21.160156 58.691406 21.074219 Z M 54.09375 22.566406 L 32.800781 31.832031 C 31.039062 30.882812 29.367188 29.726562 27.746094 28.570312 C 30.941406 27.726562 43.632812 24.878906 54.09375 22.566406 Z M 33.175781 32.601562 L 54.023438 23.523438 L 37.472656 34.046875 C 37.355469 34.121094 37.285156 34.246094 37.277344 34.386719 C 37.277344 34.390625 37.277344 34.398438 37.277344 34.402344 C 37.273438 34.417969 37.265625 34.433594 37.261719 34.449219 L 35.863281 39.574219 Z M 36.714844 39.679688 L 37.957031 35.144531 L 40.578125 37.183594 Z M 45.394531 39.859375 L 38.441406 34.441406 L 56.796875 22.773438 Z M 45.394531 39.859375 " fill-opacity="1" fill-rule="nonzero"/></g><g clip-path="url(#3243287642)"><path fill="#3a2c8d" d="M 56.863281 53.894531 C 56.421875 53.59375 55.914062 53.347656 55.363281 53.160156 C 55.140625 53.085938 54.898438 53.203125 54.820312 53.425781 C 54.746094 53.648438 54.867188 53.890625 55.089844 53.96875 C 55.570312 54.128906 56.007812 54.34375 56.386719 54.601562 C 56.460938 54.648438 56.542969 54.671875 56.625 54.671875 C 56.761719 54.671875 56.898438 54.609375 56.980469 54.484375 C 57.109375 54.289062 57.058594 54.023438 56.863281 53.894531 Z M 56.863281 53.894531 " fill-opacity="1" fill-rule="nonzero"/></g><path fill="#3a2c8d" d="M 38.691406 52.265625 C 38.886719 52.210938 39.082031 52.152344 39.273438 52.089844 C 39.496094 52.015625 39.617188 51.773438 39.542969 51.550781 C 39.46875 51.324219 39.226562 51.203125 39.003906 51.277344 C 38.789062 51.351562 38.574219 51.414062 38.355469 51.472656 C 38.339844 51.386719 38.328125 51.296875 38.320312 51.207031 C 38.304688 50.972656 38.101562 50.796875 37.867188 50.8125 C 37.632812 50.828125 37.457031 51.03125 37.472656 51.265625 C 37.480469 51.402344 37.5 51.535156 37.527344 51.667969 C 37.304688 51.71875 37.164062 51.9375 37.210938 52.164062 C 37.253906 52.394531 37.476562 52.546875 37.710938 52.5 C 37.746094 52.492188 37.785156 52.484375 37.824219 52.476562 C 37.910156 52.632812 38.007812 52.78125 38.121094 52.929688 C 38.207031 53.039062 38.332031 53.097656 38.457031 53.097656 C 38.550781 53.097656 38.640625 53.066406 38.71875 53.007812 C 38.90625 52.863281 38.941406 52.59375 38.796875 52.410156 C 38.757812 52.363281 38.722656 52.3125 38.691406 52.265625 Z M 38.691406 52.265625 " fill-opacity="1" fill-rule="nonzero"/><path fill="#3a2c8d" d="M 36.050781 51.855469 C 35.59375 51.882812 35.132812 51.882812 34.683594 51.855469 C 34.636719 51.851562 34.59375 51.851562 34.546875 51.847656 C 34.3125 51.828125 34.109375 52.003906 34.089844 52.238281 C 34.074219 52.472656 34.25 52.679688 34.484375 52.695312 C 34.53125 52.699219 34.578125 52.703125 34.628906 52.707031 C 34.871094 52.722656 35.117188 52.730469 35.359375 52.730469 C 35.605469 52.730469 35.855469 52.722656 36.101562 52.707031 C 36.339844 52.691406 36.515625 52.488281 36.503906 52.253906 C 36.488281 52.019531 36.285156 51.839844 36.050781 51.855469 Z M 36.050781 51.855469 " fill-opacity="1" fill-rule="nonzero"/><g clip-path="url(#a177b16af9)"><path fill="#3a2c8d" d="M 44.316406 53.28125 L 42.757812 53.398438 C 42.523438 53.417969 42.34375 53.621094 42.363281 53.855469 C 42.378906 54.082031 42.566406 54.25 42.789062 54.25 C 42.800781 54.25 42.808594 54.25 42.820312 54.25 L 44.378906 54.128906 C 44.613281 54.113281 44.789062 53.90625 44.773438 53.671875 C 44.753906 53.4375 44.550781 53.261719 44.316406 53.28125 Z M 44.316406 53.28125 " fill-opacity="1" fill-rule="nonzero"/></g><path fill="#3a2c8d" d="M 33.355469 41.003906 C 32.878906 41.355469 32.46875 41.675781 32.105469 41.984375 C 31.925781 42.136719 31.902344 42.40625 32.054688 42.585938 C 32.136719 42.6875 32.257812 42.738281 32.378906 42.738281 C 32.476562 42.738281 32.574219 42.707031 32.65625 42.636719 C 33.007812 42.339844 33.402344 42.027344 33.863281 41.6875 C 34.050781 41.546875 34.089844 41.28125 33.949219 41.089844 C 33.808594 40.902344 33.542969 40.863281 33.355469 41.003906 Z M 33.355469 41.003906 " fill-opacity="1" fill-rule="nonzero"/><path fill="#3a2c8d" d="M 33.085938 51.605469 C 32.585938 51.472656 32.132812 51.289062 31.738281 51.066406 C 31.535156 50.949219 31.273438 51.023438 31.15625 51.226562 C 31.042969 51.429688 31.113281 51.691406 31.316406 51.808594 C 31.773438 52.066406 32.296875 52.277344 32.867188 52.425781 C 32.902344 52.4375 32.9375 52.441406 32.976562 52.441406 C 33.164062 52.441406 33.335938 52.316406 33.386719 52.125 C 33.449219 51.898438 33.3125 51.664062 33.085938 51.605469 Z M 33.085938 51.605469 " fill-opacity="1" fill-rule="nonzero"/><path fill="#3a2c8d" d="M 30.027344 44.953125 C 30.101562 45 30.179688 45.023438 30.257812 45.023438 C 30.398438 45.023438 30.535156 44.953125 30.617188 44.828125 C 30.859375 44.453125 31.171875 44.066406 31.542969 43.671875 C 31.707031 43.5 31.699219 43.230469 31.53125 43.070312 C 31.359375 42.90625 31.089844 42.914062 30.925781 43.085938 C 30.515625 43.515625 30.171875 43.945312 29.902344 44.363281 C 29.773438 44.5625 29.832031 44.824219 30.027344 44.953125 Z M 30.027344 44.953125 " fill-opacity="1" fill-rule="nonzero"/><g clip-path="url(#e8c8ad93b0)"><path fill="#3a2c8d" d="M 41.246094 53.441406 C 40.691406 53.417969 40.234375 53.332031 39.847656 53.1875 C 39.628906 53.101562 39.382812 53.214844 39.296875 53.433594 C 39.214844 53.652344 39.324219 53.898438 39.546875 53.984375 C 40.015625 54.164062 40.558594 54.265625 41.207031 54.292969 C 41.214844 54.292969 41.222656 54.292969 41.226562 54.292969 C 41.453125 54.292969 41.644531 54.117188 41.652344 53.886719 C 41.664062 53.652344 41.480469 53.453125 41.246094 53.441406 Z M 41.246094 53.441406 " fill-opacity="1" fill-rule="nonzero"/></g><path fill="#3a2c8d" d="M 30.515625 50.007812 C 30.289062 49.699219 30.109375 49.347656 29.988281 48.960938 C 29.917969 48.738281 29.675781 48.613281 29.453125 48.683594 C 29.226562 48.753906 29.105469 48.996094 29.175781 49.21875 C 29.324219 49.695312 29.546875 50.132812 29.832031 50.515625 C 29.886719 50.589844 29.941406 50.660156 30 50.726562 C 30.082031 50.828125 30.203125 50.878906 30.324219 50.878906 C 30.421875 50.878906 30.519531 50.847656 30.597656 50.78125 C 30.78125 50.628906 30.800781 50.359375 30.652344 50.179688 C 30.605469 50.125 30.558594 50.066406 30.515625 50.007812 Z M 30.515625 50.007812 " fill-opacity="1" fill-rule="nonzero"/><path fill="#3a2c8d" d="M 53.753906 52.804688 C 53.316406 52.75 52.851562 52.726562 52.339844 52.726562 C 52.273438 52.726562 52.203125 52.726562 52.136719 52.726562 C 51.902344 52.730469 51.714844 52.925781 51.71875 53.160156 C 51.71875 53.394531 51.910156 53.582031 52.144531 53.582031 C 52.144531 53.582031 52.148438 53.582031 52.148438 53.582031 C 52.210938 53.578125 52.277344 53.578125 52.339844 53.578125 C 52.820312 53.578125 53.25 53.601562 53.652344 53.652344 C 53.671875 53.652344 53.6875 53.652344 53.703125 53.652344 C 53.917969 53.652344 54.101562 53.496094 54.125 53.277344 C 54.152344 53.042969 53.988281 52.832031 53.753906 52.804688 Z M 53.753906 52.804688 " fill-opacity="1" fill-rule="nonzero"/><path fill="#3a2c8d" d="M 44.414062 47.839844 C 44.210938 47.726562 43.949219 47.804688 43.835938 48.007812 C 43.632812 48.378906 43.339844 48.683594 43.125 48.878906 C 43.054688 48.941406 42.984375 49.003906 42.914062 49.066406 C 42.734375 49.222656 42.714844 49.492188 42.867188 49.667969 C 42.953125 49.765625 43.070312 49.816406 43.191406 49.816406 C 43.289062 49.816406 43.390625 49.78125 43.46875 49.710938 C 43.546875 49.644531 43.621094 49.578125 43.699219 49.507812 C 43.960938 49.273438 44.324219 48.890625 44.582031 48.421875 C 44.695312 48.214844 44.621094 47.953125 44.414062 47.839844 Z M 44.414062 47.839844 " fill-opacity="1" fill-rule="nonzero"/><path fill="#3a2c8d" d="M 44.667969 46.511719 C 44.347656 45.964844 43.699219 45.625 42.96875 45.617188 C 42.734375 45.617188 42.542969 45.808594 42.542969 46.042969 C 42.539062 46.277344 42.730469 46.46875 42.964844 46.472656 C 43.386719 46.472656 43.765625 46.660156 43.929688 46.941406 C 44.011719 47.078125 44.152344 47.152344 44.300781 47.152344 C 44.375 47.152344 44.445312 47.136719 44.515625 47.09375 C 44.71875 46.976562 44.785156 46.714844 44.667969 46.511719 Z M 44.667969 46.511719 " fill-opacity="1" fill-rule="nonzero"/><g clip-path="url(#87f2337a87)"><path fill="#3a2c8d" d="M 47.429688 53.042969 L 45.871094 53.160156 C 45.636719 53.179688 45.460938 53.382812 45.480469 53.617188 C 45.496094 53.839844 45.683594 54.011719 45.90625 54.011719 C 45.914062 54.011719 45.925781 54.011719 45.9375 54.011719 L 47.496094 53.890625 C 47.730469 53.871094 47.90625 53.667969 47.886719 53.433594 C 47.871094 53.199219 47.667969 53.023438 47.429688 53.042969 Z M 47.429688 53.042969 " fill-opacity="1" fill-rule="nonzero"/></g><path fill="#3a2c8d" d="M 29.363281 47.976562 C 29.597656 47.976562 29.789062 47.789062 29.792969 47.554688 C 29.800781 47.082031 29.875 46.601562 30.015625 46.132812 C 30.082031 45.90625 29.953125 45.667969 29.730469 45.601562 C 29.503906 45.535156 29.265625 45.664062 29.199219 45.886719 C 29.035156 46.433594 28.949219 46.988281 28.9375 47.542969 C 28.933594 47.777344 29.121094 47.972656 29.359375 47.976562 C 29.359375 47.976562 29.363281 47.976562 29.363281 47.976562 Z M 29.363281 47.976562 " fill-opacity="1" fill-rule="nonzero"/><path fill="#3a2c8d" d="M 42.300781 50.09375 C 42.171875 49.898438 41.90625 49.84375 41.710938 49.972656 C 41.292969 50.246094 40.851562 50.496094 40.398438 50.714844 C 40.1875 50.816406 40.097656 51.070312 40.199219 51.28125 C 40.273438 51.433594 40.425781 51.523438 40.582031 51.523438 C 40.644531 51.523438 40.707031 51.507812 40.769531 51.480469 C 41.253906 51.246094 41.726562 50.980469 42.175781 50.683594 C 42.375 50.558594 42.429688 50.292969 42.300781 50.09375 Z M 42.300781 50.09375 " fill-opacity="1" fill-rule="nonzero"/><path fill="#3a2c8d" d="M 40.167969 47.75 C 40.257812 47.75 40.351562 47.722656 40.433594 47.660156 C 40.832031 47.34375 41.257812 47.066406 41.671875 46.859375 C 41.878906 46.753906 41.964844 46.496094 41.859375 46.289062 C 41.753906 46.078125 41.496094 45.992188 41.289062 46.097656 C 40.824219 46.328125 40.347656 46.636719 39.902344 46.992188 C 39.71875 47.136719 39.6875 47.40625 39.832031 47.589844 C 39.917969 47.695312 40.042969 47.75 40.167969 47.75 Z M 40.167969 47.75 " fill-opacity="1" fill-rule="nonzero"/><path fill="#3a2c8d" d="M 50.550781 52.804688 C 50.375 52.816406 50.203125 52.828125 50.027344 52.84375 L 48.988281 52.921875 C 48.753906 52.941406 48.578125 53.144531 48.597656 53.378906 C 48.613281 53.605469 48.800781 53.773438 49.023438 53.773438 C 49.03125 53.773438 49.042969 53.773438 49.054688 53.773438 L 50.09375 53.691406 C 50.265625 53.679688 50.4375 53.667969 50.609375 53.652344 C 50.847656 53.636719 51.023438 53.433594 51.003906 53.199219 C 50.988281 52.964844 50.785156 52.785156 50.550781 52.804688 Z M 50.550781 52.804688 " fill-opacity="1" fill-rule="nonzero"/><path fill="#3a2c8d" d="M 38.023438 50.109375 C 38.082031 50.132812 38.140625 50.144531 38.199219 50.144531 C 38.363281 50.144531 38.515625 50.050781 38.585938 49.894531 C 38.765625 49.492188 39.027344 49.085938 39.367188 48.683594 C 39.519531 48.503906 39.496094 48.234375 39.316406 48.082031 C 39.136719 47.929688 38.867188 47.953125 38.714844 48.132812 C 38.324219 48.597656 38.019531 49.070312 37.808594 49.546875 C 37.714844 49.761719 37.808594 50.011719 38.023438 50.109375 Z M 38.023438 50.109375 " fill-opacity="1" fill-rule="nonzero"/></svg>