<svg version="1.2" xmlns="http://www.w3.org/2000/svg" viewBox="0 0 840 560" width="840" height="560">
	<style>
		.s0 { fill: #cabefe } 
	</style>
	<path id="مرسال" class="s0" aria-label="مرسال"  d="m240.4 88.5v215.3l-40 9.4c-28.1 6.5-54.9-15.4-54.9-44.5v-56.9h-7.5v167.4c0 29.1 26.8 50.7 55.1 44.5l54.9-12v-269.4l11.4-53.8zm41.1 91.3l11.5-53.8h-19v241.2l27.8-6.2v-108.9l-20.3 4.6zm12.7 74.1v108.7l7.8-1.5 180.9-40.6v23.1h7.6v-133.9zm282.9 24v43.1c0 10.2-6.5 18.5-16.7 20.8l-88.6 19.8v108.9l63.7-14.5c30.7-7.1 49.1-29.2 49.1-63.2v-7.8l14.1-3.1v-109zm123-41.3c0-29.1-26.5-50.7-54.9-44.5l-29.1 6.5v70.5l-24.9 5.7v108.7l7.8-1.6 101.1-22.9zm-76.7 20.3l69.4-16.1v10.9l-69.4 15.9z"/>
</svg>